<?xml version="1.0" standalone="no"?>
<!DOCTYPE svg PUBLIC "-//W3C//DTD SVG 1.1//EN" "http://www.w3.org/Graphics/SVG/1.1/DTD/svg11.dtd" >
<svg xmlns="http://www.w3.org/2000/svg" xmlns:xlink="http://www.w3.org/1999/xlink" version="1.1">
<metadata>
Created by FontForge 20170731 at Thu Jun  9 20:45:04 2005
 By Aleksey,,,
(c) COPYRIGHT H. BERTHOLD AG 1992 Alle Rechte vorbehalten.
</metadata>
<defs>
<font id="AGSchulbuchTwoBQ-Medium" horiz-adv-x="562" >
  <font-face 
    font-family="AG Schulbuch Two BQ               "
    font-weight="400"
    font-stretch="normal"
    units-per-em="1000"
    panose-1="2 0 5 3 4 0 0 2 0 4"
    ascent="800"
    descent="-200"
    x-height="518"
    cap-height="706"
    bbox="-131 -250 1035 955"
    underline-thickness="50"
    underline-position="-150"
    unicode-range="U+000C-2122"
  />
<missing-glyph horiz-adv-x="292" 
 />
    <glyph glyph-name=".notdef" horiz-adv-x="292" 
 />
    <glyph glyph-name=".null" horiz-adv-x="0" 
 />
    <glyph glyph-name="nonmarkingreturn" horiz-adv-x="292" 
 />
    <glyph glyph-name="caron" horiz-adv-x="292" 
d="M2 736l49 -83l51 83h113l-95 -147h-141l-88 147h111z" />
    <glyph glyph-name="dotlessi" unicode="&#xd;" horiz-adv-x="250" 
d="M198 0h-146v518h146v-518z" />
    <glyph glyph-name="fraction" horiz-adv-x="125" 
d="M-49 0h-65l290 706h64z" />
    <glyph glyph-name="fi" horiz-adv-x="604" 
d="M236 406v-406h-147v406h-72v112h72q0 19 1 40t4.5 41.5t12 39.5t23.5 33q14 13 32 20t37.5 10t39.5 3.5t38 0.5h57v-114q-35 0 -55 -1.5t-33 -16.5q-8 -10 -9 -22t-1 -34h98v-112h-98zM552 0h-146v518h146v-518zM552 573h-146v133h146v-133z" />
    <glyph glyph-name="fl" horiz-adv-x="604" 
d="M236 406v-406h-147v406h-72v112h72q0 19 1 40t4.5 41.5t12 39.5t23.5 33q14 13 32 20t37.5 10t39.5 3.5t38 0.5h57v-114q-35 0 -55 -1.5t-33 -16.5q-8 -10 -9 -22t-1 -34h98v-112h-98zM554 706l-6 -553q1 -9 2 -16t8 -14q8 -9 21 -10t36 -1l-1 -117q-17 -1 -34.5 -1.5
t-35.5 -0.5q-21 0 -42 2.5t-39.5 10.5t-32.5 22t-22 37q-5 16 -6 32.5t-2 32.5l5 576h149z" />
    <glyph glyph-name="space" unicode=" " horiz-adv-x="292" 
 />
    <glyph glyph-name="space" unicode="&#xa0;" horiz-adv-x="292" 
 />
    <glyph glyph-name="exclam" unicode="!" horiz-adv-x="292" 
d="M239 0h-147v147h147v-147zM116 203l-24 266v237h153v-237l-29 -266h-100z" />
    <glyph glyph-name="dollar" unicode="$" 
d="M390 483q0 4 -0.5 12.5t-3.5 19t-9 21.5t-17 20q-6 5 -13 8.5t-21 8.5v-163q46 -13 73.5 -23.5t47.5 -21.5q48 -26 70.5 -66.5t22.5 -94.5q0 -78 -39.5 -130.5t-113.5 -73.5q-11 -3 -24.5 -6t-36.5 -5v-95h-80v95q-7 1 -19 2t-28 5q-12 3 -33 10t-45 21.5t-46.5 38
t-37.5 59.5q-12 29 -14 54.5t-2 36.5h140q-1 -8 0 -24.5t14 -34.5q8 -12 18.5 -20t21 -12.5t19 -6.5t12.5 -3v177q-15 5 -30.5 9.5t-31.5 9.5q-15 5 -40 16t-48.5 31.5t-41 53.5t-17.5 83q0 10 1.5 29t9 41.5t23 46t42.5 42.5q20 14 50.5 25.5t82.5 16.5v97h80v-97
q53 -9 81.5 -22.5t48.5 -30.5q35 -30 47.5 -70t17.5 -84zM246 577q-10 -2 -13.5 -2.5t-9.5 -2.5q-5 -2 -13.5 -6t-17 -11.5t-14 -19t-5.5 -27.5q0 -21 10 -35.5t28 -24.5l14 -6t21 -8v143zM326 115q25 7 35 14q24 14 30.5 33t6.5 29q0 21 -10 35t-23 22t-24.5 12t-14.5 5
v-150z" />
    <glyph glyph-name="percent" unicode="%" horiz-adv-x="875" 
d="M852 225q-1 -81 -18.5 -127t-48.5 -72q-14 -12 -29.5 -19t-29.5 -10.5t-25.5 -4.5t-17.5 -1q-23 0 -40.5 4.5t-30.5 11.5t-22 15t-15 14q-23 26 -38 69.5t-15 116.5q0 39 4.5 64t9.5 41q4 14 14 34.5t28.5 39.5t46.5 32.5t70 13.5q14 0 40.5 -4.5t53.5 -28.5
q28 -24 45.5 -68t17.5 -121zM754 225q0 40 -5.5 67.5t-15.5 41.5q-8 11 -19.5 18t-25.5 7q-16 0 -33 -12q-36 -29 -36 -127q0 -89 23 -118q3 -5 14.5 -14.5t28.5 -9.5q10 0 25.5 7.5t26.5 30.5q8 15 12.5 42.5t4.5 66.5zM353 468q-1 -81 -21 -126.5t-50 -69.5
q-41 -32 -97 -32q-38 0 -60.5 10.5t-33.5 20.5q-23 18 -36 42t-20.5 50t-9.5 53.5t-2 53.5q0 8 1 34.5t8 54.5q3 13 12 36t27.5 45.5t48.5 39t75 16.5q6 0 16.5 -1t23 -4t26 -9t26.5 -17q22 -18 35 -41t20 -49t9 -53.5t2 -53.5zM256 469q0 9 -0.5 32.5t-7.5 49.5
q-2 8 -5.5 18t-8.5 17q-7 10 -19 16t-25 6t-21 -4.5t-11 -6.5q-13 -9 -20.5 -24t-11 -32.5t-4.5 -35t-1 -30.5q0 -43 3.5 -69.5t12.5 -44.5q3 -6 14.5 -20t35.5 -14q28 0 44 24q11 16 17.5 44.5t7.5 73.5zM254 0l282 688h85l-281 -688h-86z" />
    <glyph glyph-name="ampersand" unicode="&#x26;" horiz-adv-x="625" 
d="M607 116l-1 -120q-5 -2 -14.5 -3.5t-23.5 -1.5q-28 0 -51 7t-40.5 16.5t-30 19.5t-19.5 17q-10 -9 -26.5 -20t-39.5 -21.5t-52 -17.5t-65 -7q-11 0 -38 2.5t-57 16.5q-30 13 -53.5 33.5t-40.5 46t-26 55t-9 61.5q0 29 5.5 49.5t10.5 29.5q12 27 31 48t38.5 36t35.5 24
t23 12q-3 5 -6 10.5t-6 11.5q-12 23 -19 50t-7 53q0 36 14 67t38 53.5t55.5 35t67.5 12.5q15 0 47 -6t65 -33q21 -17 32.5 -36t17.5 -36t7.5 -32t1.5 -24q0 -42 -16 -72.5t-37 -50.5t-42.5 -32t-32.5 -17q20 -30 41 -58.5t43 -57.5q6 11 10.5 20.5t8 21t6 26.5t4.5 38h131
q-9 -55 -23 -93.5t-24 -58.5q-8 -17 -15.5 -27t-12.5 -17q19 -14 38.5 -22.5t42.5 -8.5h13zM281 450q30 13 43.5 25.5t20.5 27.5q2 5 4 12t2 13q0 8 -5 19q-4 10 -11.5 15.5t-15 8.5t-13.5 3.5t-9 0.5q-22 0 -34 -15t-12 -35q0 -19 10.5 -39.5t19.5 -35.5zM346 139
q-7 8 -13.5 16t-13.5 17q-9 12 -18 24.5t-18 25.5q-10 12 -19 24.5t-18 25.5q-5 7 -9.5 14t-9.5 15q-22 -13 -29 -19q-18 -14 -30.5 -36t-12.5 -46q0 -6 1.5 -16t7.5 -22q4 -8 10.5 -17.5t17.5 -17.5t26.5 -14t36.5 -6q35 1 58 13t33 19z" />
    <glyph glyph-name="parenleft" unicode="(" horiz-adv-x="354" 
d="M348 706q-14 -25 -27 -49.5t-25 -50.5q-21 -44 -36 -85t-24 -82.5t-13.5 -85.5t-4.5 -93q0 -18 1.5 -57t9.5 -90t25 -108.5t47 -111.5q8 -15 17.5 -29.5t29.5 -40.5l-133 1q-33 45 -60 93q-11 21 -27 53.5t-30 76t-24 97t-10 116.5q0 20 2 55.5t13 84.5q18 89 55 160.5
t88 145.5h126z" />
    <glyph glyph-name="parenright" unicode=")" horiz-adv-x="354" 
d="M9 -176q16 29 31.5 59t29.5 61q11 25 23 55.5t21.5 69.5t16 88.5t6.5 111.5q0 19 -1.5 58t-10 89.5t-25.5 107.5t-48 112q-8 14 -17.5 29t-29.5 41h135q17 -24 43 -64.5t50 -95.5t41 -124.5t17 -153.5q-1 -51 -6 -87.5t-10 -56.5q-9 -44 -23.5 -82.5t-32.5 -75t-40 -72
t-47 -71.5z" />
    <glyph glyph-name="asterisk" unicode="*" horiz-adv-x="396" 
d="M373 550l-108 -36l68 -91l-68 -50l-68 94l-68 -94l-67 50l67 91l-106 36l27 79l106 -37v114h84v-114l107 37z" />
    <glyph glyph-name="plus" unicode="+" horiz-adv-x="667" 
d="M283 0v240h-241v102h241v241h103v-241h239v-102h-239v-240h-103z" />
    <glyph glyph-name="comma" unicode="," horiz-adv-x="250" 
d="M199 11q0 -4 -0.5 -16.5t-3.5 -25.5q-6 -28 -20 -49t-29.5 -35.5t-30 -23.5t-22.5 -13q-12 -6 -25 -10t-26 -7v55q36 15 60 44q2 3 6.5 10t8.5 16q6 14 7.5 27t1.5 17h-74v150h147v-139z" />
    <glyph glyph-name="hyphen" unicode="-" horiz-adv-x="375" 
d="M333 221h-292v119h292v-119z" />
    <glyph glyph-name="period" unicode="." horiz-adv-x="250" 
d="M200 0h-149v149h149v-149z" />
    <glyph glyph-name="slash" unicode="/" horiz-adv-x="458" 
d="M437 706l-291 -706h-125l293 706h123z" />
    <glyph glyph-name="zero" unicode="0" 
d="M536 353q0 -60 -6.5 -107.5t-18.5 -84t-29 -63.5t-38 -46q-24 -23 -49.5 -36t-48 -19t-41.5 -7.5t-31 -1.5q-44 0 -80 12t-69 41q-32 30 -50 64q-29 54 -39 120t-10 126q0 64 8.5 113t24.5 85.5t37 62t47 43.5q20 14 56 29t93 15q55 0 87.5 -15.5t50.5 -29.5
q34 -27 55 -62.5t32 -75.5t15 -82t4 -81zM399 352v19.5t-2.5 42t-7.5 51.5t-14 48t-21 34t-24.5 20.5t-25 10t-22.5 2.5q-34 0 -60 -23q-21 -17 -32.5 -41.5t-17.5 -52t-7.5 -55t-1.5 -51.5v-21t1.5 -40t5.5 -49.5t11 -48.5q9 -27 20.5 -44t25 -27t27.5 -14t27 -4
q15 0 29.5 5t25.5 13q66 50 63 225z" />
    <glyph glyph-name="one" unicode="1" 
d="M380 0h-142v467h-162l1 105q26 -1 52 1t49.5 10.5t42 25t28.5 45.5q3 9 4 14t3 20h124v-688z" />
    <glyph glyph-name="two" unicode="2" 
d="M517 0h-473v115l66 57l84 69q19 16 37.5 32t36.5 33l19.5 19.5t33 39t31 53t13.5 62.5q0 40 -24 64.5t-65 24.5q-30 0 -53 -17q-15 -12 -23 -27.5t-11.5 -30t-4 -26t-0.5 -16.5v-9t1 -9l-141 6q0 9 1 27t5.5 41.5t14 49.5t27.5 51q10 13 26 29t39.5 29.5t55 22.5t72.5 9
q34 0 61 -6.5t48 -16.5t36.5 -22t24.5 -22q7 -8 16 -21t16.5 -31t12.5 -41t5 -51q0 -14 -3.5 -40.5t-16.5 -59.5q-25 -62 -70.5 -108.5t-94.5 -88.5q-20 -17 -39 -33t-38 -33h274v-125z" />
    <glyph glyph-name="three" unicode="3" 
d="M172 244q-4 -41 6 -67.5t26.5 -42.5t37 -22t37.5 -6q22 0 41 8t32.5 22.5t21 33.5t7.5 41q0 4 -0.5 14t-4.5 21q-4 10 -11 21t-19 20t-30 15t-43 6q-9 0 -19 -1t-27 -3v118q5 -1 14.5 -2t23.5 -1q38 0 58 13t28 27q3 5 7.5 16t4.5 26q0 38 -25.5 60t-61.5 22
q-30 0 -47.5 -12.5t-27 -29t-12.5 -33t-4 -23.5v-21l-133 7q1 21 2.5 41t7.5 40q14 53 44.5 82.5t64.5 44t65 17.5t46 3q32 0 52.5 -4t33.5 -8q60 -20 95 -64t35 -109q0 -35 -12 -65.5t-38 -53.5q-8 -7 -15.5 -11.5t-22.5 -12.5q15 -4 22.5 -7t15.5 -8q11 -6 25 -17.5
t26 -29t20 -42t8 -56.5q0 -25 -4.5 -45.5t-11.5 -37t-14 -28.5t-13 -19q-36 -48 -91.5 -70.5t-114.5 -22.5q-8 0 -26.5 1t-42 6.5t-49 16t-48.5 29.5q-6 5 -19 18t-24 33q-13 23 -23 56t-10 90z" />
    <glyph glyph-name="four" unicode="4" 
d="M440 147v-147h-134v147h-285v144l279 397h140v-424h94v-117h-94zM309 511l-167 -247h164z" />
    <glyph glyph-name="five" unicode="5" 
d="M492 561h-277l-27 -124q4 2 11 7t12 7q11 5 37 13.5t61 8.5q42 0 81.5 -15t69.5 -44q35 -34 50.5 -80.5t15.5 -93.5q0 -11 -1.5 -30.5t-8 -43.5t-19 -50t-34.5 -50q-11 -13 -28.5 -26.5t-41.5 -25t-56 -19t-72 -7.5q-53 0 -91.5 13.5t-65 33.5t-42.5 43t-25 43
q-9 22 -13.5 41t-6.5 42l141 6q0 -5 0.5 -14t5.5 -21q11 -32 37 -49.5t60 -17.5q6 0 19.5 1t29.5 8q10 4 22.5 13.5t23 24t18 35t7.5 48.5q0 50 -30.5 83t-81.5 33q-10 0 -33 -4t-45 -23q-7 -6 -11 -12t-6 -8h-129l66 381h389z" />
    <glyph glyph-name="six" unicode="6" 
d="M386 510q-1 11 -4.5 24t-13 24t-26 18.5t-43.5 7.5q-9 0 -27.5 -3t-38.5 -18q-18 -14 -30 -33.5t-19.5 -41.5t-11.5 -44.5t-6 -42.5q4 5 9.5 12.5t16.5 17.5q15 13 46.5 28.5t81.5 15.5q31 0 56 -7t44 -17.5t32.5 -21.5t21.5 -20t18 -24.5t19 -36.5t15 -48t6 -60
q0 -12 -2.5 -38.5t-13.5 -59.5q-26 -76 -86 -115t-139 -39q-8 0 -21.5 1t-30.5 4t-36.5 9.5t-39.5 17.5q-29 17 -52.5 43t-40.5 63.5t-26.5 88.5t-9.5 118q0 9 1 40.5t8 72.5t23 86.5t46 81.5q14 18 32 31.5t38 24.5q17 8 48 18.5t77 10.5q10 0 29 -1.5t42.5 -8.5
t48.5 -20.5t46 -38.5q14 -17 22.5 -33.5t13.5 -31.5t7 -27t3 -20zM400 230q0 7 -0.5 19.5t-5.5 29.5q-11 37 -37.5 56t-64.5 19q-13 0 -32.5 -4.5t-37.5 -17t-31 -36t-13 -60.5q0 -19 2.5 -31t5.5 -20q11 -34 37.5 -56t64.5 -22q7 0 20.5 2t29.5 10q9 4 19.5 12.5t19.5 22
t15.5 32.5t7.5 44z" />
    <glyph glyph-name="seven" unicode="7" 
d="M136 0q1 47 7 86.5t17 84.5q8 32 21 73.5t35.5 91t56 106t81.5 118.5h-305v128h457v-128q-14 -11 -25.5 -22.5t-24 -27t-26 -36.5t-30.5 -51q-12 -22 -28.5 -55t-32.5 -76.5t-29.5 -98t-18.5 -119.5q-2 -19 -2 -37v-37h-153z" />
    <glyph glyph-name="eight" unicode="8" 
d="M435 368q11 -5 26 -13.5t32 -30.5q12 -15 25 -42.5t13 -74.5q0 -11 -1.5 -30t-10.5 -45q-8 -23 -25 -48.5t-45.5 -46.5t-70 -35t-98.5 -14q-8 0 -27.5 1t-45 6t-53.5 16t-52 31q-10 9 -22.5 23t-23.5 34t-18.5 46.5t-7.5 60.5q0 28 6 50.5t14.5 39t18.5 28.5t19 19
q8 7 15 11.5t23 13.5q-10 6 -23 16.5t-24.5 27t-19.5 39.5t-8 54q0 10 1.5 24t6.5 30.5t15 35t28 36.5q24 24 52 37.5t54 20.5t46.5 8.5t29.5 1.5q8 0 27 -1.5t43 -7t50.5 -16.5t49.5 -31q9 -8 19 -19t19 -27.5t14.5 -38.5t5.5 -51q0 -6 -1 -20t-5.5 -31t-14 -35t-26.5 -33
q-9 -8 -18.5 -13t-11.5 -7zM381 497q1 43 -28 65.5t-67 22.5q-17 -1 -35.5 -5.5t-32.5 -13.5q-10 -6 -23 -22.5t-13 -46.5q0 -24 8.5 -39t14.5 -22q14 -13 34 -19t39 -6q7 0 23.5 2t34 10.5t31 26t14.5 47.5zM396 205q0 4 -0.5 12.5t-3 19.5t-8.5 23t-16 22q-16 16 -40 23
t-46 7q-3 0 -12.5 -0.5t-21.5 -3t-25.5 -7.5t-24.5 -14q-18 -15 -26.5 -36t-8.5 -44q0 -12 5 -34.5t29 -42.5q18 -15 39 -20.5t44 -5.5q16 0 26 1.5t17 3.5q7 3 19.5 9t24 17t20.5 28t9 42z" />
    <glyph glyph-name="nine" unicode="9" 
d="M176 178q2 -23 9.5 -36t14.5 -20q7 -8 16.5 -11.5t18 -5.5t15.5 -2h9q21 0 36.5 5t27 12t19 15t12.5 15q14 19 22 40.5t12.5 41t6 34.5t1.5 21q-11 -17 -20 -26t-26 -20q-16 -10 -40 -19t-66 -9q-8 0 -21.5 0.5t-30 4.5t-35 11t-37.5 21q-47 34 -68.5 86t-21.5 108
q0 50 17 98q26 76 85.5 117t138.5 40q54 0 93 -15.5t65.5 -38t42 -47.5t23.5 -43q11 -26 22.5 -77t11.5 -123q0 -9 -1 -39t-7.5 -70t-21 -84t-41.5 -80q-7 -10 -21.5 -25t-40.5 -31q-32 -20 -66.5 -29t-72.5 -9q-12 0 -32.5 2t-47.5 10q-13 4 -30 11.5t-34 21t-33 35.5
t-26 54q-4 10 -6 19t-5 29zM163 457v-19.5t5 -28.5q2 -9 8.5 -22.5t18.5 -25.5t30 -21t45 -9q53 0 84 34t31 86q0 17 -2 26.5t-4 16.5q-8 27 -21.5 44t-28.5 26t-29.5 12t-26.5 3q-11 0 -32 -4.5t-42 -24.5q-12 -13 -19 -27t-11 -26.5t-5 -23t-1 -16.5z" />
    <glyph glyph-name="colon" unicode=":" horiz-adv-x="292" 
d="M241 346h-147v148h147v-148zM241 0h-147v148h147v-148z" />
    <glyph glyph-name="semicolon" unicode=";" horiz-adv-x="292" 
d="M240 11q-1 -4 -1.5 -16.5t-3.5 -25.5q-6 -28 -20 -49t-29.5 -35.5t-30 -23.5t-22.5 -13q-12 -6 -25 -10t-26 -7v55q36 15 60 44q2 3 6.5 10t8.5 16q6 14 7.5 27t2.5 17h-75v150h148v-139zM91 346v148h149v-148h-149z" />
    <glyph glyph-name="equal" unicode="=" horiz-adv-x="667" 
d="M0 146v103h667v-103h-667zM0 334v103h667v-103h-667z" />
    <glyph glyph-name="question" unicode="?" horiz-adv-x="604" 
d="M398 0h-148v147h148v-147zM254 207v23t1 23q0 5 0.5 18.5t4.5 27.5q11 37 38.5 64t57.5 49q5 4 14.5 11.5t19 19.5t16.5 28t7 37q0 4 -1 12.5t-4 18.5q-8 21 -22 33t-29 18t-28 7t-19 1q-35 0 -63 -15.5t-41 -50.5q-4 -10 -5.5 -21.5t-3.5 -31.5l-144 1q2 54 11 84.5
t23 53.5q13 22 40.5 47t83.5 42q37 11 65 13.5t43 2.5q8 0 28.5 -1.5t46.5 -7.5t54 -18.5t52 -35.5q9 -8 19.5 -21.5t19.5 -32.5t15 -43t6 -54q0 -42 -13 -74t-41 -63q-14 -17 -26.5 -27t-29.5 -24q-18 -14 -29 -25t-18 -23.5t-9.5 -28t-3.5 -38.5z" />
    <glyph glyph-name="A" unicode="A" horiz-adv-x="667" 
d="M670 0h-178l-46 150h-226l-45 -150h-177l240 706h181zM407 279l-77 272l-73 -272h150z" />
    <glyph glyph-name="B" unicode="B" horiz-adv-x="667" 
d="M58 0v706h293q30 0 61 -1.5t61 -8.5t57 -21.5t48 -39.5q11 -13 24.5 -40t13.5 -70q0 -9 -2 -24t-8 -32t-18.5 -35t-33.5 -34q-18 -12 -38 -21q23 -10 40 -21t34 -30q44 -51 44 -120q0 -51 -17 -86.5t-40.5 -58.5t-48.5 -35t-42 -17q-23 -6 -51 -8t-77 -3h-300zM216 434
h166q30 2 44.5 10.5t22.5 22.5q3 5 6.5 14t3.5 23q0 5 -1.5 16t-9.5 23q-15 22 -42.5 26.5t-75.5 4.5h-114v-140zM216 130h98q31 0 54.5 1.5t40.5 6t29.5 13.5t21.5 25q9 15 11 28t2 19q0 5 -1 14t-5.5 19.5t-12.5 20.5t-22 17q-9 5 -18.5 7.5t-20.5 3.5t-25.5 1.5
t-33.5 0.5h-118v-177z" />
    <glyph glyph-name="C" unicode="C" horiz-adv-x="708" 
d="M700 236q-2 -12 -5.5 -30.5t-11.5 -40t-23 -45.5t-39 -48q-33 -33 -68.5 -51t-68 -26t-59 -9.5t-41.5 -1.5q-66 0 -122.5 17t-107.5 61q-32 27 -55 61t-38 72t-22 78.5t-7 81.5q0 15 2 44.5t11.5 66t28 76.5t51.5 77q34 37 72.5 58t74 31.5t64.5 12.5t46 2q7 0 20 -0.5
t30 -2.5t36.5 -5.5t39.5 -10.5q56 -19 99.5 -57.5t66.5 -94.5q8 -20 11 -35t5 -24l-159 -11q-2 8 -5.5 19t-13.5 26q-15 22 -33.5 35t-36 19t-33 7.5t-24.5 1.5q-33 0 -58 -9t-43 -21.5t-29.5 -27t-18.5 -25.5q-14 -24 -23.5 -59t-9.5 -94q0 -41 5.5 -72.5t15.5 -55.5
t23.5 -41.5t28.5 -29.5q32 -26 63 -32t46 -6q24 0 47 6.5t42.5 19t34 31t21.5 42.5q2 8 3 12.5t2 18.5z" />
    <glyph glyph-name="D" unicode="D" horiz-adv-x="688" 
d="M233 706h80.5t77.5 -5.5t74 -19t70 -41.5q43 -35 67 -78.5t35.5 -85t14 -75t2.5 -48.5t-2 -45t-11.5 -67t-29 -76.5t-54.5 -75.5q-8 -9 -29.5 -27.5t-53.5 -32.5q-22 -9 -44.5 -15t-50.5 -9t-63.5 -4t-81.5 -1h-178v706h177zM214 131h86h16.5t31 3t37 9.5t34.5 18.5
q18 14 28 32.5t13 24.5q9 20 17 52.5t8 83.5q0 52 -8.5 86.5t-19.5 54.5q-6 11 -12 19.5t-15 16.5q-14 14 -31 22t-39 12.5t-50 6t-64 1.5h-32v-443z" />
    <glyph glyph-name="E" unicode="E" horiz-adv-x="604" 
d="M546 308h-331v-179h363v-129h-521v706h514v-130h-356v-141h331v-127z" />
    <glyph glyph-name="F" unicode="F" horiz-adv-x="583" 
d="M213 296v-296h-159v706h519v-131h-360v-152h316v-127h-316z" />
    <glyph glyph-name="G" unicode="G" horiz-adv-x="750" 
d="M383 265v129h315v-394h-115l-8 87q-8 -12 -21.5 -27t-40.5 -32q-25 -16 -49 -25t-45.5 -13t-38.5 -5t-28 -1q-13 0 -34.5 1t-47.5 7t-55 18.5t-57 35.5q-45 36 -70 82.5t-36.5 90.5t-14 79.5t-2.5 50.5t1.5 42.5t9 62t23.5 73t45 74.5q15 18 38 39t56.5 39.5t78 31
t101.5 12.5q9 0 29.5 -1t46.5 -6t56 -15t57 -28q11 -8 29 -22.5t38 -40.5q31 -42 40 -73t11 -53l-153 -9q-4 14 -8 25.5t-13 24.5q-22 32 -56.5 48t-72.5 16q-7 0 -18.5 -1t-26.5 -4.5t-31.5 -10t-32.5 -17.5t-30.5 -27.5t-26 -40t-18.5 -55.5t-7 -74q0 -84 21 -131.5
t52 -72.5q14 -11 40 -23.5t70 -12.5q10 0 27.5 2t38 9.5t41.5 22t38 39.5q15 23 21 44t8 29h-175z" />
    <glyph glyph-name="H" unicode="H" horiz-adv-x="688" 
d="M472 706h159v-706h-159v305h-255v-305h-161v706h161v-268h255v268z" />
    <glyph glyph-name="I" unicode="I" horiz-adv-x="271" 
d="M215 0h-159v706h159v-706z" />
    <glyph glyph-name="J" unicode="J" horiz-adv-x="521" 
d="M475 272v-32.5t-1 -32.5v-20t-2 -32q-2 -11 -5 -25t-10.5 -30t-20.5 -33t-34 -33q-34 -27 -77 -39q-14 -4 -34 -7t-52 -3q-51 0 -99 13t-84 53q-8 8 -20 25.5t-20 44.5q-6 23 -7 49.5t-2 49.5v52h155v-67q1 -36 10 -51.5t27 -23.5q5 -3 15 -6.5t25 -3.5q14 0 23 3t14 5
q29 14 35 39t6 53v486h158v-434z" />
    <glyph glyph-name="K" unicode="K" horiz-adv-x="667" 
d="M683 0h-196l-209 317l-65 -64v-253h-158v706h158v-270l249 270h205l-281 -282z" />
    <glyph glyph-name="L" unicode="L" 
d="M549 132v-132h-493v706h159v-574h334z" />
    <glyph glyph-name="M" unicode="M" horiz-adv-x="833" 
d="M774 0h-146l5 512l-137 -512h-159l-139 512l6 -512h-147v706h221l139 -525l133 525h224v-706z" />
    <glyph glyph-name="N" unicode="N" horiz-adv-x="688" 
d="M629 0h-149l-277 458l12 -458h-158v706h153l274 -464l-10 464h155v-706z" />
    <glyph glyph-name="O" unicode="O" horiz-adv-x="771" 
d="M735 364q1 -42 -5.5 -83t-20.5 -79t-37 -72.5t-56 -62.5q-34 -30 -69.5 -46.5t-67 -24.5t-57.5 -10t-42 -2q-59 0 -111.5 16t-100.5 53q-35 27 -60 61t-41 73t-24 81t-8 85q0 15 2 44.5t11 66t27.5 77t51.5 76.5q14 16 36.5 34.5t54.5 34.5t73.5 26.5t94.5 10.5
q46 0 82.5 -8t64 -20t48 -26t35.5 -27q18 -15 38.5 -39t38 -58t29.5 -79t13 -102zM568 365q-2 42 -11.5 83t-36.5 76q-7 9 -18 20t-27.5 20.5t-39 16.5t-51.5 7q-11 0 -36.5 -3t-52.5 -20q-17 -11 -33.5 -28.5t-30 -43.5t-22 -61t-8.5 -80t9 -80.5t23.5 -62t32.5 -44
t36 -26.5q11 -5 32 -12.5t52 -7.5q10 0 25 1.5t32 7.5t35.5 17t35.5 31q35 41 45.5 89.5t8.5 99.5z" />
    <glyph glyph-name="P" unicode="P" horiz-adv-x="625" 
d="M217 0h-160v706h234h58.5t58.5 -3q10 -2 28.5 -5.5t40.5 -12.5t45 -24.5t41 -41.5q13 -19 27 -53.5t14 -89.5q0 -9 -1 -24.5t-5 -35t-12.5 -41t-24.5 -42.5q-5 -7 -16.5 -20t-29.5 -27q-19 -14 -40 -22.5t-47 -13t-60 -5.5t-79 -1h-72v-244zM217 375h94q17 0 33.5 1
t31.5 5t28 12.5t24 24.5q17 24 17 58q0 6 -1 16.5t-5.5 22.5t-14 24t-25.5 21q-23 13 -52 14.5t-80 2.5h-50v-202z" />
    <glyph glyph-name="Q" unicode="Q" horiz-adv-x="771" 
d="M655 -33l-83 68q-14 -8 -31.5 -17t-40.5 -16.5t-52 -12.5t-66 -5q-29 0 -51.5 3t-32.5 5q-31 6 -56.5 17t-45 23t-33.5 24t-23 21q-16 16 -34.5 40.5t-34 58.5t-26 78t-10.5 99q0 20 3.5 62t23.5 93q40 108 125.5 161.5t198.5 53.5q15 0 39.5 -1.5t54.5 -9t63 -22.5
t66 -42q19 -15 41 -40t41 -61t31.5 -83.5t12.5 -107.5q0 -10 -1 -30t-5.5 -46t-12.5 -55.5t-23 -58.5q-3 -5 -9 -15.5t-15 -23.5l70 -58zM475 287l72 -58q2 7 4.5 13t4.5 13q4 13 8 39t4 61q0 7 -0.5 22.5t-3.5 35.5t-10 42.5t-19 44.5q-6 10 -17.5 25t-29.5 29t-44 24
t-60 10t-56.5 -9t-34.5 -17q-17 -11 -33 -28t-29 -42.5t-21 -59.5t-8 -79q0 -8 1 -28.5t6.5 -46.5t17 -54t33.5 -52q7 -8 17.5 -17t25.5 -17t35 -13t46 -5q25 0 43 5t27 8l-63 52z" />
    <glyph glyph-name="R" unicode="R" horiz-adv-x="646" 
d="M213 0h-159v706h216q38 1 76.5 0.5t76.5 -3.5q34 -3 59 -11t43.5 -19t31 -23.5t21.5 -25.5q10 -14 21.5 -41.5t10.5 -70.5q0 -8 -1.5 -26.5t-8 -40.5t-21 -45t-40.5 -40q-18 -11 -31 -15t-22 -6q5 -1 12 -3.5t12 -4.5q23 -11 36 -29t16 -24q11 -21 15 -42t8 -44
q6 -37 10.5 -68.5t18.5 -66.5l6 -16t8 -16q8 -14 16 -25h-167q-8 10 -12 19q-11 20 -17 43.5t-12 67.5q-4 23 -7.5 46.5t-15.5 44.5q-17 29 -43.5 33.5t-58.5 4.5h-21t-21 1h-56v-260zM213 388h55h21.5t21.5 1q25 0 55.5 2.5t53.5 17.5q11 8 22.5 27t11.5 53q0 14 -3 26.5
t-11 23.5q-10 13 -24 20t-30 10t-32.5 3h-30.5h-110v-184z" />
    <glyph glyph-name="S" unicode="S" horiz-adv-x="667" 
d="M458 488q-3 23 -8.5 42t-24.5 35q-22 19 -49.5 24.5t-54.5 5.5q-1 0 -18 -0.5t-37.5 -6.5t-38 -21t-17.5 -44q1 -14 9.5 -30t37.5 -28q23 -9 51.5 -15t77.5 -17q41 -9 71.5 -18.5t54 -20.5t40.5 -24t31 -29q14 -17 28.5 -46.5t14.5 -80.5q0 -39 -9 -69t-22.5 -51.5
t-29 -36t-28.5 -23.5q-28 -19 -61.5 -29.5t-64 -15t-53 -5t-29.5 -0.5t-26.5 0.5t-46 4t-56 10.5t-56.5 21q-8 5 -25 16t-34 30q-20 22 -31.5 46t-17 45.5t-7 39t-2.5 27.5l159 9q2 -29 9.5 -49t31.5 -37q16 -12 41 -21t69 -9q66 0 96 22.5t30 58.5q0 13 -7 30.5t-35 31.5
q-14 7 -40.5 14t-63.5 16l-33 7q-17 4 -35 8t-35 9t-44.5 16t-54 33t-46 58t-19.5 91q0 33 8 59t20 45.5t25 32.5t24 21q27 20 76 36.5t127 16.5q56 0 98 -10t73 -26t51.5 -37.5t33.5 -44.5q14 -26 20 -51.5t9 -54.5z" />
    <glyph glyph-name="T" unicode="T" horiz-adv-x="583" 
d="M370 0h-158v575h-211v131h580v-131h-211v-575z" />
    <glyph glyph-name="U" unicode="U" horiz-adv-x="667" 
d="M617 344v-54t-1 -54q-1 -35 -4.5 -60.5t-10 -45.5t-15 -35t-19.5 -28q-30 -35 -67.5 -51t-82.5 -24q-11 -2 -36 -5t-57 -3q-8 0 -31.5 1t-53.5 7t-62.5 19t-59.5 38q-33 30 -49 71q-14 35 -16.5 70.5t-2.5 70.5v445h161v-361q0 -12 -0.5 -30t0 -37t1 -37t2.5 -30
q6 -38 22 -54t30 -24q10 -5 27 -9.5t42 -4.5q28 0 56.5 9.5t45.5 33.5t19 51t2 54v39.5t1 39.5v360h159v-362z" />
    <glyph glyph-name="V" unicode="V" horiz-adv-x="646" 
d="M643 706l-247 -706h-147l-248 706h173l150 -513l148 513h171z" />
    <glyph glyph-name="W" unicode="W" horiz-adv-x="896" 
d="M894 706l-199 -706h-148l-100 478l-102 -478h-146l-198 706h160l112 -473l98 473h152l100 -473l115 473h156z" />
    <glyph glyph-name="X" unicode="X" horiz-adv-x="646" 
d="M629 706l-215 -332l234 -374h-186l-139 249l-140 -249h-185l238 374l-215 332h175l127 -210l121 210h185z" />
    <glyph glyph-name="Y" unicode="Y" horiz-adv-x="625" 
d="M629 706l-238 -443v-263h-158v263l-238 443h176l139 -288l144 288h175z" />
    <glyph glyph-name="Z" unicode="Z" horiz-adv-x="646" 
d="M229 130h390v-130h-597v119l387 455h-366v132h568v-124z" />
    <glyph glyph-name="bracketleft" unicode="[" horiz-adv-x="375" 
d="M212 587v-644h148v-120h-296v883h296v-119h-148z" />
    <glyph glyph-name="backslash" unicode="\" horiz-adv-x="354" 
d="M243 -18l-229 724h103l228 -724h-102z" />
    <glyph glyph-name="bracketright" unicode="]" horiz-adv-x="375" 
d="M163 -57v644h-148v119h296v-883h-296v120h148z" />
    <glyph glyph-name="underscore" unicode="_" horiz-adv-x="500" 
d="M-10 -228v103h520v-103h-520z" />
    <glyph glyph-name="grave" unicode="`" horiz-adv-x="292" 
d="M19 589l-122 147h171l49 -147h-98z" />
    <glyph glyph-name="a" unicode="a" 
d="M374 519h140v-519h-143l-1 56q-5 -8 -9.5 -13t-12.5 -12q-14 -14 -41 -28t-72 -14q-12 0 -39.5 3.5t-56.5 19.5q-20 10 -40.5 29.5t-38 48.5t-28.5 69t-11 92q0 10 1 32.5t7 51t19 60t36 59.5q21 25 45 40t46 23.5t40.5 11t30.5 2.5q37 0 58 -11t32 -21q8 -7 16 -15
t13 -17l9 -15v67zM275 412q-7 1 -19.5 -1.5t-27.5 -12.5q-23 -14 -34.5 -35.5t-17 -43t-6 -38.5t-0.5 -22t0.5 -15.5t2.5 -24.5t6.5 -30t12.5 -31q18 -31 39.5 -39.5t36.5 -8.5q30 0 52 19q31 25 40 61t9 75q0 26 -5 55t-19 52q-3 3 -8.5 9.5t-14.5 13.5t-20.5 12t-26.5 5z
" />
    <glyph glyph-name="b" unicode="b" horiz-adv-x="583" 
d="M197 481q5 5 7.5 7t7.5 7q14 11 44.5 24t77.5 13q36 0 63 -8t46.5 -20.5t33 -26.5t22.5 -26q19 -26 36 -69t17 -114q0 -12 -0.5 -30.5t-5.5 -45.5q-2 -11 -6.5 -33t-16 -48t-31.5 -52t-53 -45q-23 -14 -50.5 -21.5t-54.5 -7.5q-31 0 -53.5 7.5t-39.5 18t-28.5 22
t-19.5 20.5l3 -53h-146v706h146zM195 256q0 -52 11 -80.5t31 -45.5q25 -22 62 -22q46 0 75.5 38t29.5 122q0 29 -6 58.5t-24 52.5q-8 10 -24.5 21t-46.5 11q-25 0 -40 -7.5t-23 -13.5q-30 -24 -38 -61.5t-7 -72.5z" />
    <glyph glyph-name="c" unicode="c" horiz-adv-x="542" 
d="M377 332q-3 16 -6 23.5t-7 14.5q-8 14 -25.5 28t-52.5 14q-43 0 -65.5 -21.5t-32.5 -48t-11 -50.5t-1 -30q0 -54 13 -84.5t33 -46.5q8 -6 23 -13.5t40 -7.5q5 0 16 1.5t24 7.5q15 6 33 24t23 56l143 -7q-2 -9 -5.5 -26.5t-12.5 -39t-23.5 -44t-37.5 -42.5
q-24 -20 -49 -31.5t-47.5 -16.5t-41 -6t-29.5 -1q-10 0 -27.5 1t-39 5.5t-45.5 15t-48 28.5q-35 27 -54 60.5t-28 65.5t-11 58.5t-2 38.5q0 61 18 111.5t52.5 87t83.5 56.5t112 20q10 0 32.5 -1.5t48.5 -9.5q45 -14 81.5 -47.5t54.5 -78.5q6 -15 8.5 -28.5t4.5 -29.5z" />
    <glyph glyph-name="d" unicode="d" horiz-adv-x="583" 
d="M532 0h-143v49q-5 -6 -9 -11.5t-9 -10.5q-14 -12 -43 -26t-76 -14q-39 0 -64.5 9.5t-39.5 17.5q-19 11 -39.5 30.5t-38 49t-28.5 70t-11 93.5q0 57 16 112.5t58 98.5q22 22 45 35t43.5 19t38 7.5t29.5 1.5q18 0 32 -2.5t31 -9.5q6 -2 13 -5t13 -6q7 -5 17 -12t16 -12v222
h149v-706zM388 262q-1 53 -11 81t-30 45q-7 5 -22 13.5t-39 8.5q-20 0 -39 -8.5t-33.5 -26.5t-23.5 -46.5t-9 -68.5q0 -12 1 -26.5t3 -25.5q8 -42 31.5 -70.5t69.5 -28.5q30 1 46 10.5t24 19.5q22 25 27 58.5t5 64.5z" />
    <glyph glyph-name="e" unicode="e" 
d="M535 150q-2 -5 -4.5 -14.5t-8.5 -20.5q-4 -7 -11.5 -18.5t-18.5 -25t-26.5 -27t-34.5 -24.5q-22 -12 -44.5 -19t-43 -10.5t-36 -4.5t-22.5 -1q-13 0 -35.5 2t-49.5 10t-56 24.5t-55 45.5q-10 11 -21.5 28.5t-21 41.5t-16 54.5t-6.5 67.5q0 12 1.5 34t8.5 48.5t21 55.5
t39 56q11 12 28 26t40.5 26t55 20t71.5 8q12 0 31.5 -1.5t43.5 -8.5t49.5 -20.5t49.5 -38.5q31 -33 47.5 -71.5t23.5 -74t7 -63.5v-39h-363q1 -5 2 -12.5t5 -18.5q1 -5 4.5 -13.5t10 -19t16.5 -20.5t24 -17q8 -3 20 -6.5t31 -3.5q35 0 54 11.5t28 22.5q5 6 9 12.5t5 8.5z
M386 328q-1 7 -2.5 14.5t-4.5 15.5t-9.5 18.5t-17.5 19.5t-27.5 15t-38.5 6q-8 0 -21 -1.5t-26.5 -7.5t-27 -18.5t-22.5 -33.5q-4 -7 -5.5 -11.5t-4.5 -16.5h207z" />
    <glyph glyph-name="f" unicode="f" horiz-adv-x="354" 
d="M236 406v-406h-147v406h-72v112h72q0 19 1 40t4.5 41.5t12 39.5t23.5 33q14 13 32 20t37.5 10t39.5 3.5t38 0.5h57v-114q-35 0 -55 -1.5t-33 -16.5q-8 -10 -9 -22t-1 -34h98v-112h-98z" />
    <glyph glyph-name="g" unicode="g" horiz-adv-x="583" 
d="M536 68q0 -45 -6.5 -85.5t-35.5 -76.5q-26 -32 -76.5 -54t-137.5 -22q-7 0 -31.5 0.5t-55.5 8t-62 24.5t-52 50q-8 13 -15 31t-12 50l156 -1q7 -17 25 -32t59 -15q5 0 13 0.5t20 3.5q7 1 15.5 4t17.5 9t16 17t11 28t4 32t2 47v10q-2 -3 -6 -8t-8 -8q-26 -26 -61 -37
t-70 -11q-37 0 -62.5 8.5t-38.5 15.5q-43 22 -66.5 55.5t-35 67t-13.5 62.5t-2 41q0 33 4.5 56t9.5 36q11 35 30 64t45.5 50t58.5 32t70 11q34 0 58.5 -9t42 -22t29 -27t18.5 -24v68h142v-450zM172 280q0 -6 1.5 -19.5t6.5 -29.5t16 -31.5t31 -27.5q5 -3 19.5 -8.5
t34.5 -5.5q8 0 23.5 2.5t32.5 13.5q20 13 31 30.5t16 34.5t5.5 31t0.5 20q0 27 -7 49q-3 7 -9 19.5t-17.5 24.5t-29 20t-42.5 8q-16 0 -35.5 -5.5t-37 -20.5t-29 -40.5t-11.5 -64.5z" />
    <glyph glyph-name="h" unicode="h" 
d="M198 465q2 4 5.5 8.5t9.5 9.5q7 6 18.5 14t27.5 15.5t36.5 12.5t44.5 5q55 0 99 -27.5t62 -81.5q8 -23 9.5 -51t1.5 -77v-293h-147v256v49t-3 38.5t-9.5 28.5t-19.5 21q-6 4 -17 8t-28 4q-18 0 -32 -5t-28 -17q-8 -8 -12.5 -15t-6.5 -11q-4 -9 -6.5 -22t-3.5 -26.5
t-1 -27v-22.5v-259h-146v706h146v-241z" />
    <glyph glyph-name="i" unicode="i" horiz-adv-x="250" 
d="M198 0h-146v518h146v-518zM198 573h-146v133h146v-133z" />
    <glyph glyph-name="j" unicode="j" horiz-adv-x="250" 
d="M200 51q0 -23 0.5 -44.5t-1.5 -42.5q-2 -23 -7.5 -43t-19.5 -39q-20 -24 -54 -35.5t-95 -11.5h-28.5t-28.5 1l1 123h17t27 2q16 3 24.5 9t12.5 13.5t4.5 15.5t0.5 15v18.5t1 18.5v467h146v-467zM200 575h-146v131h146v-131z" />
    <glyph glyph-name="k" unicode="k" horiz-adv-x="542" 
d="M549 518l-200 -196l214 -322h-187l-130 220l-48 -48v-172h-147v706h147v-365l160 177h191z" />
    <glyph glyph-name="l" unicode="l" horiz-adv-x="250" 
d="M199 706l-6 -553q1 -9 2 -16t8 -14q8 -9 21 -10t36 -1l-1 -117q-17 -1 -34.5 -1.5t-35.5 -0.5q-21 0 -42 2.5t-39.5 10.5t-32.5 22t-22 37q-5 16 -6 32.5t-2 32.5l5 576h149z" />
    <glyph glyph-name="m" unicode="m" horiz-adv-x="854" 
d="M195 449q8 14 25.5 36t55.5 36q7 2 23.5 5.5t36.5 3.5q7 0 21.5 -1.5t31.5 -6.5t35 -16t33 -30q8 -11 12.5 -20t6.5 -14q5 8 8.5 13t9.5 13q7 8 19 18.5t29.5 20t40 16t51.5 6.5q14 0 28.5 -1.5t28.5 -6.5q10 -3 25 -10t31 -19.5t29.5 -32.5t19.5 -49q3 -13 4 -25.5
t1.5 -28t1 -35t0.5 -45.5v-276h-147v245q0 15 -0.5 30.5t-0.5 30.5q-1 9 -2 19.5t-3 18.5q-2 6 -6 15t-12.5 17.5t-21 14t-31.5 5.5q-6 0 -18.5 -1.5t-26.5 -11.5q-24 -17 -29 -46.5t-4 -80.5v-256h-148v292q-1 25 -5 49t-26 41q-5 4 -16.5 9t-28.5 5q-25 0 -46 -13
q-14 -10 -21.5 -24t-10.5 -32.5t-3.5 -43t-0.5 -54.5v-229h-146v518h146v-69z" />
    <glyph glyph-name="n" unicode="n" 
d="M196 518v-59q7 8 17 19t31 25q23 14 45.5 20.5t49.5 6.5q10 0 28 -2t39 -9.5t42 -22.5t38 -41q13 -20 19.5 -41.5t9 -43.5t2.5 -44.5v-44.5v-281h-151v271q0 15 0.5 32t-2 33t-9.5 30t-22 24q-6 4 -17 9t-28 5q-33 -1 -50.5 -17.5t-23.5 -26.5q-5 -10 -8 -20.5t-4 -23.5
t-1.5 -29t-0.5 -37v-250h-148v518h144z" />
    <glyph glyph-name="o" unicode="o" horiz-adv-x="583" 
d="M559 265q0 -15 -2.5 -47.5t-18.5 -70.5q-16 -40 -42.5 -70.5t-60 -50.5t-72.5 -30.5t-81 -10.5q-11 0 -31.5 1.5t-45.5 8.5t-52.5 21t-52.5 38q-40 40 -58.5 95t-18.5 109q0 17 5 56.5t28 84.5q25 48 60 74.5t71 40t66.5 16.5t46.5 3q14 0 44.5 -3t66.5 -19
q37 -16 64.5 -42t46 -58.5t28 -69.5t9.5 -76zM408 267v17.5t-2.5 26.5t-8.5 31.5t-18 31.5q-23 29 -47 35t-38 6q-22 0 -43.5 -7.5t-38.5 -25t-27.5 -47t-10.5 -74.5q0 -57 15 -88t38 -48q28 -20 64 -20q9 0 26.5 3t37.5 17q16 12 26.5 28.5t16.5 35.5t8 39t2 39z" />
    <glyph glyph-name="p" unicode="p" horiz-adv-x="583" 
d="M192 457q5 6 11 14t12 13q14 14 44 30.5t80 16.5q37 0 65.5 -10t49.5 -24.5t34 -30.5t21 -27q16 -26 25 -54.5t13 -53.5t5 -44.5t1 -27.5q0 -11 -1.5 -37t-10 -58.5t-26.5 -67t-51 -62.5q-8 -6 -19.5 -14.5t-28 -15.5t-37.5 -12t-47 -5q-6 0 -18 0.5t-28 3.5
q-32 7 -50 19t-40 35v-207h-147v680h143v-61zM195 257q0 -32 6.5 -66t32.5 -57q14 -13 30.5 -18.5t35.5 -5.5q4 0 14.5 1t22.5 6q28 13 47.5 50t19.5 102q0 28 -5.5 55t-22.5 50q-26 37 -73 37q-9 0 -26 -3t-35 -17q-23 -17 -35.5 -47.5t-11.5 -86.5z" />
    <glyph glyph-name="q" unicode="q" horiz-adv-x="583" 
d="M530 -162h-147v203q-8 -10 -11 -12.5l-9 -7.5q-14 -12 -42 -23t-73 -11q-40 0 -73.5 12.5t-62.5 40.5q-30 28 -46.5 62.5t-24.5 66t-9.5 57t-1.5 35.5q0 36 5 61.5t10 38.5q11 37 30.5 68t46.5 53.5t61 35t74 12.5q32 0 61.5 -10.5t52.5 -33.5q5 -5 8.5 -9.5t9.5 -14.5
v56h141v-680zM388 260q1 79 -28 115t-72 36q-30 0 -52 -15q-17 -11 -28 -27t-17.5 -34.5t-9 -39t-2.5 -38.5q0 -39 9 -67t23.5 -46t33 -26.5t38.5 -8.5q8 0 23 2.5t32 14.5q22 17 35 47t15 87z" />
    <glyph glyph-name="r" unicode="r" horiz-adv-x="354" 
d="M193 433q3 8 10 22.5t21 31.5q8 9 14.5 14t11.5 8q10 7 22.5 11t23.5 5.5t20 2t12 0.5q17 0 25 -2l-1 -134q-5 1 -13.5 2t-21.5 1h-9.5t-16.5 -1q-5 -1 -15 -3.5t-21.5 -8t-22.5 -15.5t-18 -26q-5 -11 -7.5 -21.5t-3.5 -23.5t-1.5 -29t-0.5 -38q-1 -15 -1 -30v-30v-169
h-151v518h144v-85z" />
    <glyph glyph-name="s" unicode="s" horiz-adv-x="521" 
d="M343 351q-1 2 -3 14.5t-8 23.5q-8 13 -27.5 24.5t-53.5 11.5q-71 0 -71 -43q0 -3 1 -9.5t7 -11.5q6 -6 16.5 -10.5t22.5 -8t23 -6t19 -3.5q66 -14 106 -26.5t66 -32.5q19 -15 30.5 -31.5t16.5 -32t6.5 -29t1.5 -21.5q0 -26 -5.5 -46t-13.5 -35t-17.5 -25t-17.5 -17
q-24 -20 -51 -30.5t-52 -15.5t-44.5 -5.5t-26.5 -0.5q-8 0 -31.5 1t-54 7.5t-62.5 21.5t-57 44q-6 7 -17 23.5t-18 41.5q-5 18 -5.5 32t-0.5 21l140 5q3 -17 5 -26.5t7 -17.5q10 -19 32.5 -31t65.5 -12q39 0 56.5 13.5t17.5 35.5q0 4 -2 11.5t-9 15.5q-11 11 -33 16.5
t-36 9.5q-26 6 -51 12t-51 13q-13 4 -34 11.5t-41.5 23.5t-35.5 43t-15 69q0 9 2.5 30t15.5 44q10 18 26 34t40.5 28.5t57.5 20t76 7.5q9 0 29.5 -1t46 -7t53 -19t50.5 -37q8 -8 20.5 -25.5t20.5 -46.5q3 -14 4 -24.5t1 -15.5z" />
    <glyph glyph-name="t" unicode="t" horiz-adv-x="354" 
d="M232 406v-190v-48.5t5 -31.5t16.5 -17t34.5 -5h27q3 1 6.5 1h6.5v-114q-26 -3 -50.5 -5t-50.5 -2q-54 0 -81 14t-41 36q-14 23 -17.5 53.5t-2.5 84.5v224h-74v112h74v153h147v-153h91v-112h-91z" />
    <glyph glyph-name="u" unicode="u" 
d="M509 0h-140v57q-8 -12 -19 -23q-14 -14 -46.5 -30.5t-83.5 -16.5q-8 0 -26 1.5t-39.5 9t-43 22.5t-36.5 42q-10 18 -15 36.5t-7.5 41.5t-3 52t-0.5 68v258h147v-239v-55.5t3 -44t10 -33.5t22 -24q14 -9 27.5 -11t19.5 -2q7 0 18.5 2t23 8t22 18t16.5 32q5 18 6 50t2 77
v222h143v-518z" />
    <glyph glyph-name="v" unicode="v" horiz-adv-x="500" 
d="M320 0h-141l-179 518h157l95 -321l86 321h156z" />
    <glyph glyph-name="w" unicode="w" horiz-adv-x="750" 
d="M749 518l-150 -518h-137l-87 350l-86 -350h-139l-151 518h151l79 -324l81 324h130l80 -324l79 324h150z" />
    <glyph glyph-name="x" unicode="x" horiz-adv-x="542" 
d="M350 267l190 -267h-174l-97 152l-97 -152h-171l184 267l-174 251h167l91 -145l91 145h165z" />
    <glyph glyph-name="y" unicode="y" horiz-adv-x="500" 
d="M498 518l-171 -514q-5 -14 -10.5 -31t-13 -34t-16.5 -32.5t-20 -26.5q-3 -4 -10 -9.5t-18 -10.5q-20 -10 -46 -13t-71 -5q-8 0 -16 -0.5t-16 -0.5q-10 0 -19.5 0.5t-20.5 1.5l1 116q14 0 29 -0.5t29 0.5q26 2 37 9t18 20q2 5 5.5 13.5t3.5 22.5q0 16 -6 30.5t-15 43.5
l-150 420h160l94 -349l86 349h156z" />
    <glyph glyph-name="z" unicode="z" horiz-adv-x="500" 
d="M457 399l-248 -277h265v-122h-456v110l256 286h-227v122h410v-119z" />
    <glyph glyph-name="braceleft" unicode="{" horiz-adv-x="354" 
d="M126 538v27.5t1 27.5q2 46 18 83.5t63 56.5q12 5 24.5 7.5t27.5 4t34 2t45 1.5v-7q-13 -3 -29 -8q-7 -2 -17 -6.5t-20 -13t-19 -22t-14 -32.5q-4 -15 -4.5 -34.5t-0.5 -51.5v-96q0 -36 -0.5 -64t-3 -50.5t-8.5 -40t-17 -32.5q-13 -17 -29.5 -26t-36.5 -15q26 -8 39.5 -17
t23.5 -19q13 -15 19.5 -31.5t9.5 -38t3.5 -48.5t0.5 -63v-109q0 -29 1.5 -59.5t18.5 -57.5q16 -25 36.5 -33.5t46.5 -16.5v-6q-20 0 -40.5 0.5t-40.5 2.5q-22 3 -45 10.5t-41 22.5t-27 34t-13 40.5t-4.5 43.5t-0.5 42v171q0 27 -4.5 51t-22.5 47q-11 14 -26 23
q-8 4 -13.5 5.5t-8.5 2.5v7q14 3 27 10q19 11 29 29.5t14 39.5t4 42.5v39.5v124z" />
    <glyph glyph-name="braceright" unicode="}" horiz-adv-x="354" 
d="M228 -41v-46t-4 -46q-2 -9 -5.5 -22.5t-11.5 -28t-22.5 -28.5t-37.5 -23q-12 -5 -24.5 -8t-28 -4t-34.5 -1.5t-45 -1.5v6q27 7 47.5 16t36.5 32q7 12 11.5 23t6 24.5t2 31t0.5 41.5v97q0 36 0.5 64t3 50.5t8.5 40t17 32.5q13 17 30 25.5t37 14.5q-28 8 -41 17t-22 20
q-13 15 -20 31.5t-10 37.5t-3.5 48t-0.5 63v109q1 46 -2 70t-16 45q-16 25 -37.5 34.5t-47.5 17.5v7q12 -1 24.5 -1t24.5 -1q32 -2 62 -7t56 -28q18 -15 27 -34t13 -40t4.5 -43t0.5 -43v-128q0 -34 1.5 -69.5t21.5 -64.5q2 -4 10.5 -13t20.5 -16l8 -4t13 -5v-6q-8 -2 -14 -4
t-13 -7q-19 -11 -29 -29.5t-14 -39.5t-4 -42.5v-39.5v-124z" />
    <glyph glyph-name="exclamdown" unicode="&#xa1;" horiz-adv-x="292" 
d="M52 706h146v-148h-146v148zM175 504l23 -267v-237h-152v237l28 267h101z" />
    <glyph glyph-name="sterling" unicode="&#xa3;" horiz-adv-x="583" 
d="M562 198q-2 -82 -23.5 -125.5t-57.5 -63.5q-11 -5 -31 -12t-50 -7q-26 0 -48.5 5t-40.5 12.5t-31 15t-21 12.5l-8.5 -8.5t-14.5 -11.5q-20 -13 -43.5 -19t-46.5 -6q-25 0 -48 7t-41 21t-28.5 34.5t-10.5 48.5q0 14 2.5 24.5t3.5 14.5q4 10 11.5 23t21 24t33.5 18.5
t47 7.5q24 0 40 -4.5t25 -8.5q-1 14 -3 24t-5.5 18t-8.5 16.5t-12 19.5h-120v93h75q-5 9 -13 22t-15 31t-12 40.5t-5 49.5q0 24 6 45.5t17 42.5q21 37 52.5 58t63 31t57.5 12t35 2t28 -1t43 -7t49.5 -18.5t48.5 -34.5q28 -27 42.5 -63.5t19.5 -73.5q2 -10 2 -20v-20
l-128 -28q0 5 -0.5 25t-5.5 40q-9 36 -35 60t-66 24q-12 0 -19 -1.5t-12 -3.5q-20 -6 -32.5 -17t-19 -23t-8.5 -23.5t-2 -18.5q0 -37 16.5 -69t36.5 -61h124v-93h-89q3 -11 6.5 -28.5t3.5 -44.5q0 -13 -1 -25.5t-9 -35.5l7.5 -7.5t6.5 -5.5q14 -11 29.5 -14t20.5 -3
q4 0 13.5 1.5t19.5 8.5q15 10 23.5 31t8.5 57v27h126v-41zM191 102q-1 9 -10.5 18.5t-31.5 9.5q-2 0 -8 -0.5t-12 -3.5t-11 -9t-5 -16q0 -11 6 -17t13 -9t13.5 -3.5t8.5 -0.5q12 0 25 7t12 24z" />
    <glyph glyph-name="section" unicode="&#xa7;" horiz-adv-x="625" 
d="M210 65q-1 -11 -0.5 -21t3.5 -21q3 -9 8.5 -19.5t16 -20t26.5 -15.5t39 -6q42 0 60 19t18 39q0 22 -15 35.5t-31 23.5q-12 8 -26.5 15t-40.5 18l-52 23q-30 13 -61.5 28.5t-57 36.5t-42 49.5t-16.5 68.5q0 42 20.5 75.5t59.5 51.5q10 5 19 8t29 8q-1 0 -9 6t-13 12
q-10 10 -23.5 33.5t-13.5 60.5q0 11 4.5 35.5t24.5 49.5q21 27 63 46t116 19q7 0 26 -0.5t43 -5.5t50 -15.5t48 -30.5q8 -7 21 -22.5t21 -40.5q8 -22 9 -40t1 -26h-132q-3 27 -8 37q-7 13 -25 24t-51 11q-32 0 -48 -11.5t-16 -28.5q0 -13 7 -21t9 -10q10 -9 33 -20.5
t49 -22.5t49.5 -21t34.5 -15q28 -12 54.5 -26.5t47.5 -34.5t34 -46t13 -60q0 -29 -7.5 -50.5t-18.5 -36.5t-23 -24.5t-22 -15.5q-8 -5 -16 -7.5t-25 -7.5q11 -10 15 -14.5t9 -10.5q25 -30 30.5 -59t5.5 -43t-5.5 -44t-30.5 -60q-12 -15 -29 -28t-41 -23.5t-55.5 -16.5
t-72.5 -6q-10 0 -33.5 1t-50.5 9q-65 17 -103 65t-38 115q0 7 0.5 13t0.5 13zM323 242q15 -8 30 -14.5t30 -14.5q19 6 26 10q22 11 28.5 25.5t6.5 24.5q0 13 -4 21t-6 11q-11 14 -30 24t-51 25l-38 17q-15 8 -30 14.5t-30 13.5q-5 -1 -9 -1q-4 -1 -8 -1t-7 -1q-2 -1 -9.5 -4
t-16 -9.5t-15.5 -16t-7 -23.5q0 -8 4.5 -19t18.5 -22q10 -8 27 -16.5l41 -20.5z" />
    <glyph glyph-name="dieresis" unicode="&#xa8;" horiz-adv-x="292" 
d="M232 589h-137v129h137v-129zM13 589h-138v129h138v-129z" />
    <glyph glyph-name="copyright" unicode="&#xa9;" horiz-adv-x="833" 
d="M773 351q0 -16 -3 -41.5t-12 -57t-26 -66.5t-47 -69q-51 -58 -120.5 -89t-147.5 -31q-76 0 -145 30t-120 86q-32 34 -50 70t-27 68.5t-11.5 59t-2.5 43.5q0 44 8.5 80.5t21 65t26.5 49t25 33.5q14 16 37.5 38t57.5 41.5t79 33.5t102 14q14 0 37 -2t51.5 -8.5t60 -20.5
t63.5 -38q18 -13 42.5 -37t47 -60t38 -84t15.5 -108zM740 352q0 13 -1.5 34.5t-8 47.5t-19.5 55.5t-35 59.5q-12 16 -33.5 38t-53 42t-74.5 34t-97 14q-13 0 -33.5 -1.5t-46 -8t-54.5 -19t-58 -33.5q-16 -12 -39 -33.5t-44 -54t-35.5 -76t-14.5 -98.5q0 -65 24 -123
q18 -46 49 -83t70.5 -63.5t85.5 -40.5t96 -14q25 0 52 4.5t51 12.5q50 16 90 46.5t68.5 71t44.5 88.5t16 100zM545 442q-26 28 -54 43.5t-67 15.5q-8 0 -27.5 -2.5t-40.5 -13.5q-38 -19 -56 -55t-18 -76q0 -32 10.5 -58.5t29.5 -46t45.5 -30t58.5 -10.5q25 0 44.5 6t34 15
t24.5 18.5t16 16.5l72 -66q-11 -12 -27 -27t-39.5 -28.5t-55 -22.5t-72.5 -9q-53 0 -97.5 18t-76.5 50t-50 76.5t-18 97.5q0 10 1 26.5t6 37t15 43t27 45.5q10 13 26 29t40 30t55.5 23.5t72.5 9.5q40 0 71.5 -9.5t54.5 -23t39.5 -28.5t27.5 -27z" />
    <glyph glyph-name="guillemotleft" unicode="&#xab;" horiz-adv-x="437" 
d="M230 344l154 136v-126l-81 -71l81 -70v-121l-154 129v123zM41 345l153 134v-128l-82 -70l82 -67v-123l-153 129v125z" />
    <glyph glyph-name="minus" unicode="&#xad;" horiz-adv-x="667" 
d="M0 242v103h667v-103h-667z" />
    <glyph glyph-name="registered" unicode="&#xae;" horiz-adv-x="833" 
d="M495 130q-2 3 -3 6.5t-3 6.5q-9 23 -13 51t-8 52q-5 32 -10.5 46t-20.5 24q-12 7 -23.5 8t-37.5 2h-23v-196h-95v453h155q20 0 41.5 -0.5t42 -4t39 -12.5t33.5 -27q18 -23 22.5 -44.5t4.5 -31.5q0 -28 -9 -44.5t-17 -24.5q-7 -7 -13.5 -12.5t-14.5 -10.5
q-9 -5 -13.5 -6.5t-19.5 -7.5q14 -7 19 -10.5t11 -9.5q10 -10 15.5 -23t8.5 -26.5t5 -27.5t4 -27q1 -5 3 -16t5.5 -25.5t9.5 -30.5t14 -31h-109zM411 402q35 0 54 5.5t28 22.5q5 8 6.5 16t1.5 12q0 11 -7 27q-11 20 -31 22.5t-40 2.5h-70v-108h58zM773 351q0 -16 -2.5 -41.5
t-11.5 -56t-26 -64.5t-45 -67q-35 -42 -75 -67t-77 -37.5t-68.5 -16.5t-50.5 -4q-60 0 -115.5 19t-102.5 54q-17 13 -41 37t-45.5 59t-36.5 82t-15 106q0 44 8.5 80.5t21 65t26.5 49t25 33.5q14 16 37.5 38t57.5 41.5t79 33.5t102 14q85 0 159.5 -36.5t126.5 -106.5
q35 -48 52.5 -102t16.5 -113zM741 352q0 13 -1.5 34t-8 47t-19 55t-34.5 59q-12 16 -33.5 38.5t-53.5 42.5t-75 34.5t-98 14.5q-13 0 -33.5 -1.5t-46 -8t-54.5 -19t-58 -33.5q-16 -12 -39 -33.5t-44 -54t-35.5 -76t-14.5 -98.5q0 -65 24 -123q18 -46 49 -83t70.5 -63.5
t85.5 -40.5t96 -14q15 0 43.5 3t65.5 16q49 17 88.5 47.5t67 70.5t43 87.5t15.5 98.5z" />
    <glyph glyph-name="acute" unicode="&#xb4;" horiz-adv-x="292" 
d="M-11 589l45 147h165l-111 -147h-99z" />
    <glyph glyph-name="periodcentered" unicode="&#xb7;" horiz-adv-x="187" 
d="M92 213q-32 0 -54 23t-22 55q0 8 2 16.5t5 16.5q9 20 29 33t42 13q16 0 30 -6.5t24.5 -17t16.5 -24.5t6 -30q0 -17 -6.5 -31.5t-17 -25t-25 -16.5t-30.5 -6z" />
    <glyph glyph-name="periodcentered" unicode="&#x2219;" horiz-adv-x="187" 
d="M92 213q-32 0 -54 23t-22 55q0 8 2 16.5t5 16.5q9 20 29 33t42 13q16 0 30 -6.5t24.5 -17t16.5 -24.5t6 -30q0 -17 -6.5 -31.5t-17 -25t-25 -16.5t-30.5 -6z" />
    <glyph glyph-name="cedilla" unicode="&#xb8;" horiz-adv-x="292" 
d="M119 -151l-67 -84h-78l63 84h-40v103h122v-103z" />
    <glyph glyph-name="guillemotright" unicode="&#xbb;" horiz-adv-x="437" 
d="M396 219l-153 -134v128l81 71l-81 66v125l153 -130v-126zM207 221l-154 -135v124l82 71l-82 71v121l154 -131v-121z" />
    <glyph glyph-name="questiondown" unicode="&#xbf;" horiz-adv-x="604" 
d="M206 706h148v-146h-148v146zM350 500v-23.5t-1 -23.5q0 -12 -1.5 -25.5t-6.5 -28t-15.5 -31t-29.5 -35.5q-8 -8 -17 -15.5t-19 -14.5q-14 -11 -23 -17.5t-20 -19.5q-6 -8 -16 -24.5t-10 -42.5q0 -17 4 -27.5t7 -16.5q9 -17 23 -26.5t27.5 -14t25 -5.5t16.5 -1
q36 0 56.5 12.5t30.5 23.5q15 18 20 39t7 44h143q-2 -52 -10.5 -82t-20.5 -51q-22 -38 -51.5 -59.5t-71.5 -33.5q-15 -5 -43.5 -11t-67.5 -6q-11 0 -37 2t-57.5 11.5t-63.5 30t-54 56.5q-9 15 -19.5 43t-10.5 71q0 45 14.5 77.5t44.5 64.5q17 17 29 27t20 16q17 14 29 25.5
t19.5 24.5t10.5 28.5t3 38.5h136z" />
    <glyph glyph-name="Agrave" unicode="&#xc0;" horiz-adv-x="667" 
d="M670 0h-178l-46 150h-226l-45 -150h-177l240 706h181zM407 279l-77 272l-73 -272h150zM206 895h163l21 -124h-95z" />
    <glyph glyph-name="Aacute" unicode="&#xc1;" horiz-adv-x="667" 
d="M670 0h-178l-46 150h-226l-45 -150h-177l240 706h181zM407 279l-77 272l-73 -272h150zM298 895h166l-94 -124h-94z" />
    <glyph glyph-name="Acircumflex" unicode="&#xc2;" horiz-adv-x="667" 
d="M670 0h-178l-46 150h-226l-45 -150h-177l240 706h181zM407 279l-77 272l-73 -272h150zM283 771h-116l90 124h155l86 -124h-114l-51 67z" />
    <glyph glyph-name="Atilde" unicode="&#xc3;" horiz-adv-x="667" 
d="M670 0h-178l-46 150h-226l-45 -150h-177l240 706h181zM407 279l-77 272l-73 -272h150zM184 771q1 23 3.5 33.5t5.5 21.5q8 27 16 38t21 18q14 8 26 9t17 1q18 0 34.5 -4t48.5 -13q7 -2 18 -4.5t19 -2.5q9 0 14 3t7.5 7.5t3.5 9t1 7.5l76 -1q0 -11 -0.5 -19.5t-5.5 -28.5
q-6 -25 -16.5 -40t-23 -23.5t-25.5 -11t-24 -2.5q-17 0 -40 6t-39 10q-12 4 -23 6t-16 2q-14 0 -17.5 -8.5t-4.5 -13.5h-76z" />
    <glyph glyph-name="Adieresis" unicode="&#xc4;" horiz-adv-x="667" 
d="M670 0h-178l-46 150h-226l-45 -150h-177l240 706h181zM407 279l-77 272l-73 -272h150zM384 771v124h130v-124h-130zM151 895h129v-124h-129v124z" />
    <glyph glyph-name="Aring" unicode="&#xc5;" horiz-adv-x="667" 
d="M670 0h-178l-46 150h-226l-45 -150h-177l240 706h181zM407 279l-77 272l-73 -272h150zM335 955q21 0 39.5 -8t32 -21.5t21.5 -32t8 -40.5q0 -21 -8 -39.5t-21.5 -32t-32.5 -21.5t-40 -8q-6 0 -18.5 1.5t-27.5 8.5q-6 3 -15.5 10t-18.5 18.5t-15 27t-6 36.5q0 44 29 72.5
t73 28.5zM334 897q-19 0 -31.5 -12.5t-12.5 -31.5q0 -18 13 -30.5t31 -12.5t31 12.5t13 31.5q-1 18 -13.5 30.5t-30.5 12.5z" />
    <glyph glyph-name="AE" unicode="&#xc6;" horiz-adv-x="958" 
d="M923 129v-129h-514v152h-183l-63 -152h-167l313 706h614v-135h-358v-138h330v-127h-330v-177h358zM409 274v318l-132 -318h132z" />
    <glyph glyph-name="Ccedilla" unicode="&#xc7;" horiz-adv-x="708" 
d="M700 236q-2 -12 -5.5 -30.5t-11.5 -40t-23 -45.5t-39 -48q-33 -33 -68.5 -51t-68 -26t-59 -9.5t-41.5 -1.5q-66 0 -122.5 17t-107.5 61q-32 27 -55 61t-38 72t-22 78.5t-7 81.5q0 15 2 44.5t11.5 66t28 76.5t51.5 77q34 37 72.5 58t74 31.5t64.5 12.5t46 2q7 0 20 -0.5
t30 -2.5t36.5 -5.5t39.5 -10.5q56 -19 99.5 -57.5t66.5 -94.5q8 -20 11 -35t5 -24l-159 -11q-2 8 -5.5 19t-13.5 26q-15 22 -33.5 35t-36 19t-33 7.5t-24.5 1.5q-33 0 -58 -9t-43 -21.5t-29.5 -27t-18.5 -25.5q-14 -24 -23.5 -59t-9.5 -94q0 -41 5.5 -72.5t15.5 -55.5
t23.5 -41.5t28.5 -29.5q32 -26 63 -32t46 -6q24 0 47 6.5t42.5 19t34 31t21.5 42.5q2 8 3 12.5t2 18.5zM421 -151l-67 -84h-78l63 84h-40v103h122v-103z" />
    <glyph glyph-name="Egrave" unicode="&#xc8;" horiz-adv-x="604" 
d="M546 308h-331v-179h363v-129h-521v706h514v-130h-356v-141h331v-127zM175 895h162l22 -124h-96z" />
    <glyph glyph-name="Eacute" unicode="&#xc9;" horiz-adv-x="604" 
d="M546 308h-331v-179h363v-129h-521v706h514v-130h-356v-141h331v-127zM267 895h166l-94 -124h-94z" />
    <glyph glyph-name="Ecircumflex" unicode="&#xca;" horiz-adv-x="604" 
d="M546 308h-331v-179h363v-129h-521v706h514v-130h-356v-141h331v-127zM251 771h-115l89 124h155l86 -124h-113l-51 67z" />
    <glyph glyph-name="Edieresis" unicode="&#xcb;" horiz-adv-x="604" 
d="M546 308h-331v-179h363v-129h-521v706h514v-130h-356v-141h331v-127zM353 771v124h130v-124h-130zM119 895h130v-124h-130v124z" />
    <glyph glyph-name="Igrave" unicode="&#xcc;" horiz-adv-x="271" 
d="M215 0h-159v706h159v-706zM8 895h163l21 -124h-95z" />
    <glyph glyph-name="Iacute" unicode="&#xcd;" horiz-adv-x="271" 
d="M215 0h-159v706h159v-706zM100 895h166l-94 -124h-94z" />
    <glyph glyph-name="Icircumflex" unicode="&#xce;" horiz-adv-x="271" 
d="M215 0h-159v706h159v-706zM85 771h-116l90 124h155l86 -124h-114l-51 67z" />
    <glyph glyph-name="Idieresis" unicode="&#xcf;" horiz-adv-x="271" 
d="M215 0h-159v706h159v-706zM186 771v124h130v-124h-130zM-47 895h129v-124h-129v124z" />
    <glyph glyph-name="Ntilde" unicode="&#xd1;" horiz-adv-x="688" 
d="M629 0h-149l-277 458l12 -458h-158v706h153l274 -464l-10 464h155v-706zM194 771q1 23 4 33.5t5 21.5q8 27 16.5 38t21.5 18q14 8 25.5 9t17.5 1q17 0 33.5 -4t48.5 -13q7 -2 18.5 -4.5t19.5 -2.5q17 0 20.5 11t4.5 16l76 -1q1 -11 0.5 -19.5t-5.5 -28.5
q-6 -25 -16.5 -40t-23 -23.5t-25.5 -11t-25 -2.5q-17 0 -39.5 6t-38.5 10q-13 4 -23.5 6t-15.5 2q-14 0 -17.5 -8.5t-5.5 -13.5h-76z" />
    <glyph glyph-name="Ograve" unicode="&#xd2;" horiz-adv-x="771" 
d="M735 364q1 -42 -5.5 -83t-20.5 -79t-37 -72.5t-56 -62.5q-34 -30 -69.5 -46.5t-67 -24.5t-57.5 -10t-42 -2q-59 0 -111.5 16t-100.5 53q-35 27 -60 61t-41 73t-24 81t-8 85q0 15 2 44.5t11 66t27.5 77t51.5 76.5q14 16 36.5 34.5t54.5 34.5t73.5 26.5t94.5 10.5
q46 0 82.5 -8t64 -20t48 -26t35.5 -27q18 -15 38.5 -39t38 -58t29.5 -79t13 -102zM568 365q-2 42 -11.5 83t-36.5 76q-7 9 -18 20t-27.5 20.5t-39 16.5t-51.5 7q-11 0 -36.5 -3t-52.5 -20q-17 -11 -33.5 -28.5t-30 -43.5t-22 -61t-8.5 -80t9 -80.5t23.5 -62t32.5 -44
t36 -26.5q11 -5 32 -12.5t52 -7.5q10 0 25 1.5t32 7.5t35.5 17t35.5 31q35 41 45.5 89.5t8.5 99.5zM258 895h163l21 -124h-95z" />
    <glyph glyph-name="Oacute" unicode="&#xd3;" horiz-adv-x="771" 
d="M735 364q1 -42 -5.5 -83t-20.5 -79t-37 -72.5t-56 -62.5q-34 -30 -69.5 -46.5t-67 -24.5t-57.5 -10t-42 -2q-59 0 -111.5 16t-100.5 53q-35 27 -60 61t-41 73t-24 81t-8 85q0 15 2 44.5t11 66t27.5 77t51.5 76.5q14 16 36.5 34.5t54.5 34.5t73.5 26.5t94.5 10.5
q46 0 82.5 -8t64 -20t48 -26t35.5 -27q18 -15 38.5 -39t38 -58t29.5 -79t13 -102zM568 365q-2 42 -11.5 83t-36.5 76q-7 9 -18 20t-27.5 20.5t-39 16.5t-51.5 7q-11 0 -36.5 -3t-52.5 -20q-17 -11 -33.5 -28.5t-30 -43.5t-22 -61t-8.5 -80t9 -80.5t23.5 -62t32.5 -44
t36 -26.5q11 -5 32 -12.5t52 -7.5q10 0 25 1.5t32 7.5t35.5 17t35.5 31q35 41 45.5 89.5t8.5 99.5zM350 895h166l-94 -124h-94z" />
    <glyph glyph-name="Ocircumflex" unicode="&#xd4;" horiz-adv-x="771" 
d="M735 364q1 -42 -5.5 -83t-20.5 -79t-37 -72.5t-56 -62.5q-34 -30 -69.5 -46.5t-67 -24.5t-57.5 -10t-42 -2q-59 0 -111.5 16t-100.5 53q-35 27 -60 61t-41 73t-24 81t-8 85q0 15 2 44.5t11 66t27.5 77t51.5 76.5q14 16 36.5 34.5t54.5 34.5t73.5 26.5t94.5 10.5
q46 0 82.5 -8t64 -20t48 -26t35.5 -27q18 -15 38.5 -39t38 -58t29.5 -79t13 -102zM568 365q-2 42 -11.5 83t-36.5 76q-7 9 -18 20t-27.5 20.5t-39 16.5t-51.5 7q-11 0 -36.5 -3t-52.5 -20q-17 -11 -33.5 -28.5t-30 -43.5t-22 -61t-8.5 -80t9 -80.5t23.5 -62t32.5 -44
t36 -26.5q11 -5 32 -12.5t52 -7.5q10 0 25 1.5t32 7.5t35.5 17t35.5 31q35 41 45.5 89.5t8.5 99.5zM335 771h-116l90 124h155l86 -124h-114l-51 67z" />
    <glyph glyph-name="Otilde" unicode="&#xd5;" horiz-adv-x="771" 
d="M735 364q1 -42 -5.5 -83t-20.5 -79t-37 -72.5t-56 -62.5q-34 -30 -69.5 -46.5t-67 -24.5t-57.5 -10t-42 -2q-59 0 -111.5 16t-100.5 53q-35 27 -60 61t-41 73t-24 81t-8 85q0 15 2 44.5t11 66t27.5 77t51.5 76.5q14 16 36.5 34.5t54.5 34.5t73.5 26.5t94.5 10.5
q46 0 82.5 -8t64 -20t48 -26t35.5 -27q18 -15 38.5 -39t38 -58t29.5 -79t13 -102zM568 365q-2 42 -11.5 83t-36.5 76q-7 9 -18 20t-27.5 20.5t-39 16.5t-51.5 7q-11 0 -36.5 -3t-52.5 -20q-17 -11 -33.5 -28.5t-30 -43.5t-22 -61t-8.5 -80t9 -80.5t23.5 -62t32.5 -44
t36 -26.5q11 -5 32 -12.5t52 -7.5q10 0 25 1.5t32 7.5t35.5 17t35.5 31q35 41 45.5 89.5t8.5 99.5zM236 771q1 23 3.5 33.5t5.5 21.5q8 27 16 38t21 18q14 8 26 9t17 1q18 0 34.5 -4t48.5 -13q7 -2 18.5 -4.5t18.5 -2.5q9 0 14 3t7.5 7.5t3.5 9t1 7.5l76 -1
q0 -11 -0.5 -19.5t-5.5 -28.5q-6 -25 -16.5 -40t-23 -23.5t-25.5 -11t-24 -2.5q-17 0 -40 6t-39 10q-12 4 -23 6t-15 2q-15 0 -18.5 -8.5t-4.5 -13.5h-76z" />
    <glyph glyph-name="Odieresis" unicode="&#xd6;" horiz-adv-x="771" 
d="M735 364q1 -42 -5.5 -83t-20.5 -79t-37 -72.5t-56 -62.5q-34 -30 -69.5 -46.5t-67 -24.5t-57.5 -10t-42 -2q-59 0 -111.5 16t-100.5 53q-35 27 -60 61t-41 73t-24 81t-8 85q0 15 2 44.5t11 66t27.5 77t51.5 76.5q14 16 36.5 34.5t54.5 34.5t73.5 26.5t94.5 10.5
q46 0 82.5 -8t64 -20t48 -26t35.5 -27q18 -15 38.5 -39t38 -58t29.5 -79t13 -102zM568 365q-2 42 -11.5 83t-36.5 76q-7 9 -18 20t-27.5 20.5t-39 16.5t-51.5 7q-11 0 -36.5 -3t-52.5 -20q-17 -11 -33.5 -28.5t-30 -43.5t-22 -61t-8.5 -80t9 -80.5t23.5 -62t32.5 -44
t36 -26.5q11 -5 32 -12.5t52 -7.5q10 0 25 1.5t32 7.5t35.5 17t35.5 31q35 41 45.5 89.5t8.5 99.5zM436 771v124h131v-124h-131zM203 895h129v-124h-129v124z" />
    <glyph glyph-name="Oslash" unicode="&#xd8;" horiz-adv-x="771" 
d="M110 -28l-51 41l67 81q-10 11 -15.5 18t-13.5 19q-9 13 -19.5 34t-19.5 49t-15.5 63t-6.5 76q0 14 1.5 40t8.5 59t21.5 69.5t41.5 72.5q14 19 37 42t57 42t79 32t104 13q9 0 28 -1t43 -5.5t51.5 -13t54.5 -23.5q8 -5 15 -9.5t14 -9.5l71 84l49 -41l-70 -86
q19 -23 33 -44.5t24.5 -43.5t17.5 -46.5t12 -53.5q5 -26 6 -49t1 -31q0 -15 -2 -40t-9 -56t-21.5 -66.5t-39.5 -69.5q-15 -19 -38 -42.5t-57.5 -43.5t-80.5 -34t-106 -14q-44 0 -88.5 9t-82.5 31q-14 8 -22.5 13.5t-13.5 10.5zM498 547q-1 1 -8.5 7t-15.5 11q-11 6 -33.5 15
t-54.5 9q-9 0 -23 -1.5t-31 -7t-35 -16t-35 -28.5q-32 -35 -46 -83.5t-14 -93.5q0 -24 3.5 -53t10.5 -52q2 -7 4.5 -14t8.5 -21zM269 163q26 -21 52.5 -32.5t60.5 -11.5q12 1 39 4.5t56 20.5q35 21 53.5 52.5t27 62.5t9.5 56t1 34q0 41 -5 70t-10 44q-3 10 -7.5 18.5
t-6.5 10.5z" />
    <glyph glyph-name="Ugrave" unicode="&#xd9;" horiz-adv-x="667" 
d="M617 344v-54t-1 -54q-1 -35 -4.5 -60.5t-10 -45.5t-15 -35t-19.5 -28q-30 -35 -67.5 -51t-82.5 -24q-11 -2 -36 -5t-57 -3q-8 0 -31.5 1t-53.5 7t-62.5 19t-59.5 38q-33 30 -49 71q-14 35 -16.5 70.5t-2.5 70.5v445h161v-361q0 -12 -0.5 -30t0 -37t1 -37t2.5 -30
q6 -38 22 -54t30 -24q10 -5 27 -9.5t42 -4.5q28 0 56.5 9.5t45.5 33.5t19 51t2 54v39.5t1 39.5v360h159v-362zM206 895h163l21 -124h-95z" />
    <glyph glyph-name="Uacute" unicode="&#xda;" horiz-adv-x="667" 
d="M617 344v-54t-1 -54q-1 -35 -4.5 -60.5t-10 -45.5t-15 -35t-19.5 -28q-30 -35 -67.5 -51t-82.5 -24q-11 -2 -36 -5t-57 -3q-8 0 -31.5 1t-53.5 7t-62.5 19t-59.5 38q-33 30 -49 71q-14 35 -16.5 70.5t-2.5 70.5v445h161v-361q0 -12 -0.5 -30t0 -37t1 -37t2.5 -30
q6 -38 22 -54t30 -24q10 -5 27 -9.5t42 -4.5q28 0 56.5 9.5t45.5 33.5t19 51t2 54v39.5t1 39.5v360h159v-362zM298 895h166l-94 -124h-94z" />
    <glyph glyph-name="Ucircumflex" unicode="&#xdb;" horiz-adv-x="667" 
d="M617 344v-54t-1 -54q-1 -35 -4.5 -60.5t-10 -45.5t-15 -35t-19.5 -28q-30 -35 -67.5 -51t-82.5 -24q-11 -2 -36 -5t-57 -3q-8 0 -31.5 1t-53.5 7t-62.5 19t-59.5 38q-33 30 -49 71q-14 35 -16.5 70.5t-2.5 70.5v445h161v-361q0 -12 -0.5 -30t0 -37t1 -37t2.5 -30
q6 -38 22 -54t30 -24q10 -5 27 -9.5t42 -4.5q28 0 56.5 9.5t45.5 33.5t19 51t2 54v39.5t1 39.5v360h159v-362zM283 771h-116l90 124h155l86 -124h-114l-51 67z" />
    <glyph glyph-name="Udieresis" unicode="&#xdc;" horiz-adv-x="667" 
d="M617 344v-54t-1 -54q-1 -35 -4.5 -60.5t-10 -45.5t-15 -35t-19.5 -28q-30 -35 -67.5 -51t-82.5 -24q-11 -2 -36 -5t-57 -3q-8 0 -31.5 1t-53.5 7t-62.5 19t-59.5 38q-33 30 -49 71q-14 35 -16.5 70.5t-2.5 70.5v445h161v-361q0 -12 -0.5 -30t0 -37t1 -37t2.5 -30
q6 -38 22 -54t30 -24q10 -5 27 -9.5t42 -4.5q28 0 56.5 9.5t45.5 33.5t19 51t2 54v39.5t1 39.5v360h159v-362zM384 771v124h130v-124h-130zM151 895h129v-124h-129v124z" />
    <glyph glyph-name="germandbls" unicode="&#xdf;" horiz-adv-x="583" 
d="M236 103q13 -2 25 -3t25 -1h10.5t17.5 1.5t21 4.5t20 9q17 11 30.5 39t13.5 73q0 5 -1 20.5t-7 34t-18.5 36.5t-35.5 28q-14 6 -28.5 8t-29.5 2q-22 0 -43 -3v99q14 0 30 -1t31.5 1t29.5 8t24 20q5 6 10 17.5t5 30.5q0 12 -2.5 21.5t-4.5 13.5q-10 23 -32.5 34.5
t-46.5 11.5q-17 0 -36.5 -7.5t-30.5 -21.5q-12 -17 -14 -42.5t-2 -65.5v-471h-146v489q1 42 3 64.5t9 42.5q8 26 24 48.5t43 39.5t66 27t93 10q8 0 33.5 -1.5t56.5 -10.5t61.5 -29t48.5 -57q5 -9 11.5 -29.5t6.5 -48.5q0 -7 -1.5 -20t-6 -28t-13.5 -31.5t-25 -31.5
q-6 -5 -12.5 -10t-19.5 -13q13 -7 23.5 -13t21.5 -15q25 -21 39 -46.5t21 -49.5t8 -44t1 -29q0 -31 -6.5 -62.5t-20 -59.5t-35 -51t-52.5 -37q-13 -5 -34.5 -10.5t-54.5 -5.5q-26 0 -52 2.5t-52 5.5v107z" />
    <glyph glyph-name="agrave" unicode="&#xe0;" 
d="M374 519h140v-519h-143l-1 56q-5 -8 -9.5 -13t-12.5 -12q-14 -14 -41 -28t-72 -14q-12 0 -39.5 3.5t-56.5 19.5q-20 10 -40.5 29.5t-38 48.5t-28.5 69t-11 92q0 10 1 32.5t7 51t19 60t36 59.5q21 25 45 40t46 23.5t40.5 11t30.5 2.5q37 0 58 -11t32 -21q8 -7 16 -15
t13 -17l9 -15v67zM275 412q-7 1 -19.5 -1.5t-27.5 -12.5q-23 -14 -34.5 -35.5t-17 -43t-6 -38.5t-0.5 -22t0.5 -15.5t2.5 -24.5t6.5 -30t12.5 -31q18 -31 39.5 -39.5t36.5 -8.5q30 0 52 19q31 25 40 61t9 75q0 26 -5 55t-19 52q-3 3 -8.5 9.5t-14.5 13.5t-20.5 12t-26.5 5z
M248 589l-122 147h171l49 -147h-98z" />
    <glyph glyph-name="aacute" unicode="&#xe1;" 
d="M374 519h140v-519h-143l-1 56q-5 -8 -9.5 -13t-12.5 -12q-14 -14 -41 -28t-72 -14q-12 0 -39.5 3.5t-56.5 19.5q-20 10 -40.5 29.5t-38 48.5t-28.5 69t-11 92q0 10 1 32.5t7 51t19 60t36 59.5q21 25 45 40t46 23.5t40.5 11t30.5 2.5q37 0 58 -11t32 -21q8 -7 16 -15
t13 -17l9 -15v67zM275 412q-7 1 -19.5 -1.5t-27.5 -12.5q-23 -14 -34.5 -35.5t-17 -43t-6 -38.5t-0.5 -22t0.5 -15.5t2.5 -24.5t6.5 -30t12.5 -31q18 -31 39.5 -39.5t36.5 -8.5q30 0 52 19q31 25 40 61t9 75q0 26 -5 55t-19 52q-3 3 -8.5 9.5t-14.5 13.5t-20.5 12t-26.5 5z
M218 589l45 147h165l-111 -147h-99z" />
    <glyph glyph-name="acircumflex" unicode="&#xe2;" 
d="M374 519h140v-519h-143l-1 56q-5 -8 -9.5 -13t-12.5 -12q-14 -14 -41 -28t-72 -14q-12 0 -39.5 3.5t-56.5 19.5q-20 10 -40.5 29.5t-38 48.5t-28.5 69t-11 92q0 10 1 32.5t7 51t19 60t36 59.5q21 25 45 40t46 23.5t40.5 11t30.5 2.5q37 0 58 -11t32 -21q8 -7 16 -15
t13 -17l9 -15v67zM275 412q-7 1 -19.5 -1.5t-27.5 -12.5q-23 -14 -34.5 -35.5t-17 -43t-6 -38.5t-0.5 -22t0.5 -15.5t2.5 -24.5t6.5 -30t12.5 -31q18 -31 39.5 -39.5t36.5 -8.5q30 0 52 19q31 25 40 61t9 75q0 26 -5 55t-19 52q-3 3 -8.5 9.5t-14.5 13.5t-20.5 12t-26.5 5z
M330 589l-49 81l-50 -81h-113l95 147h141l88 -147h-112z" />
    <glyph glyph-name="atilde" unicode="&#xe3;" 
d="M374 519h140v-519h-143l-1 56q-5 -8 -9.5 -13t-12.5 -12q-14 -14 -41 -28t-72 -14q-12 0 -39.5 3.5t-56.5 19.5q-20 10 -40.5 29.5t-38 48.5t-28.5 69t-11 92q0 10 1 32.5t7 51t19 60t36 59.5q21 25 45 40t46 23.5t40.5 11t30.5 2.5q37 0 58 -11t32 -21q8 -7 16 -15
t13 -17l9 -15v67zM275 412q-7 1 -19.5 -1.5t-27.5 -12.5q-23 -14 -34.5 -35.5t-17 -43t-6 -38.5t-0.5 -22t0.5 -15.5t2.5 -24.5t6.5 -30t12.5 -31q18 -31 39.5 -39.5t36.5 -8.5q30 0 52 19q31 25 40 61t9 75q0 26 -5 55t-19 52q-3 3 -8.5 9.5t-14.5 13.5t-20.5 12t-26.5 5z
M134 589q0 18 -0.5 31t-0.5 23t1.5 18.5t4.5 18.5q1 5 5.5 14.5t13 19.5t21.5 17t32 7q11 0 24.5 -3.5t25 -8t19.5 -8.5t9 -4q10 -5 25 -11.5t28 -6.5q4 0 8 1t9 8q4 5 6 11.5t3 19.5h66q1 -8 2 -34t-4 -53q-1 -5 -3.5 -15.5t-9 -21t-18.5 -18t-31 -7.5q-6 0 -12.5 1
t-17.5 4q-15 4 -28 9.5l-39 16.5q-17 7 -26 10.5t-18 3.5q-11 0 -15 -6q-6 -6 -7.5 -13.5t-2.5 -23.5h-70z" />
    <glyph glyph-name="adieresis" unicode="&#xe4;" 
d="M374 519h140v-519h-143l-1 56q-5 -8 -9.5 -13t-12.5 -12q-14 -14 -41 -28t-72 -14q-12 0 -39.5 3.5t-56.5 19.5q-20 10 -40.5 29.5t-38 48.5t-28.5 69t-11 92q0 10 1 32.5t7 51t19 60t36 59.5q21 25 45 40t46 23.5t40.5 11t30.5 2.5q37 0 58 -11t32 -21q8 -7 16 -15
t13 -17l9 -15v67zM275 412q-7 1 -19.5 -1.5t-27.5 -12.5q-23 -14 -34.5 -35.5t-17 -43t-6 -38.5t-0.5 -22t0.5 -15.5t2.5 -24.5t6.5 -30t12.5 -31q18 -31 39.5 -39.5t36.5 -8.5q30 0 52 19q31 25 40 61t9 75q0 26 -5 55t-19 52q-3 3 -8.5 9.5t-14.5 13.5t-20.5 12t-26.5 5z
M478 589h-137v129h137v-129zM259 589h-138v129h138v-129z" />
    <glyph glyph-name="aring" unicode="&#xe5;" 
d="M230 590q-13 13 -20 31t-7 38q0 7 2 20.5t11 28.5q13 23 35.5 35t49.5 12q11 0 22.5 -2t19.5 -7q18 -8 29 -20t17 -25t8 -24.5t2 -18.5t-2 -20t-11 -28q-9 -16 -21.5 -25.5t-24.5 -14t-22.5 -6t-16.5 -1.5q-29 0 -46 9.5t-25 17.5zM275 632q5 -5 12 -8t14 -3
q16 0 27 11.5t11 26.5q0 16 -11.5 27t-26.5 11q-16 0 -27 -11.5t-11 -26.5q0 -5 2 -12t10 -15zM374 519h140v-519h-143l-1 56q-5 -8 -9.5 -13t-12.5 -12q-14 -14 -41 -28t-72 -14q-12 0 -39.5 3.5t-56.5 19.5q-20 10 -40.5 29.5t-38 48.5t-28.5 69t-11 92q0 10 1 32.5t7 51
t19 60t36 59.5q21 25 45 40t46 23.5t40.5 11t30.5 2.5q37 0 58 -11t32 -21q8 -7 16 -15t13 -17l9 -15v67zM275 412q-7 1 -19.5 -1.5t-27.5 -12.5q-23 -14 -34.5 -35.5t-17 -43t-6 -38.5t-0.5 -22t0.5 -15.5t2.5 -24.5t6.5 -30t12.5 -31q18 -31 39.5 -39.5t36.5 -8.5
q30 0 52 19q31 25 40 61t9 75q0 26 -5 55t-19 52q-3 3 -8.5 9.5t-14.5 13.5t-20.5 12t-26.5 5z" />
    <glyph glyph-name="ae" unicode="&#xe6;" horiz-adv-x="917" 
d="M524 218q2 -21 8 -37.5t20 -33.5q17 -21 38 -30t49 -9q33 0 53.5 12.5t28.5 22.5q6 7 12 19l149 -10q-5 -11 -14 -29.5t-26 -41.5q-26 -33 -56.5 -52t-60 -28.5t-54.5 -11.5t-38 -2q-42 0 -76 9t-69 31q-16 10 -27 19t-25 22q-9 -11 -21.5 -22.5t-38.5 -25.5
q-35 -19 -69.5 -27t-74.5 -8q-8 0 -25 1t-39 6t-46 16t-44 31q-15 16 -23 30.5t-11 22.5q-8 23 -9.5 40.5t-1.5 27.5q0 32 6.5 51.5t14.5 31.5q22 39 59.5 54.5t78.5 20.5q17 2 55 5t86 3q11 0 20.5 -0.5t19.5 -0.5v9t-1.5 18.5t-5.5 22t-12 20.5q-11 13 -31.5 17.5
t-36.5 4.5h-7t-14.5 -1t-18 -3t-16.5 -6q-15 -8 -23.5 -22t-13.5 -30h-135q2 13 6 34t19 48q16 30 39.5 48.5t51.5 28.5t59 13.5t62 3.5q32 0 57.5 -4t56.5 -16q13 -5 21 -9.5t14 -7.5q6 -5 11 -8t11 -8q5 4 10.5 8t11.5 8q22 13 44.5 21t42.5 12t35.5 5t23.5 1q11 0 28 -1
t37.5 -6t43.5 -15.5t46 -29.5q14 -12 25 -24t22 -28q20 -31 36.5 -80.5t15.5 -130.5h-364zM733 329q-1 5 -2.5 15.5t-8.5 23.5q-4 7 -11 16t-18 16.5t-26 13t-36 5.5q-23 0 -40.5 -6.5t-33.5 -22.5q-4 -3 -12 -12t-13 -22q-5 -10 -6 -16t-2 -11h209zM374 218q-33 -1 -66 -1
t-66 -4q-2 0 -8.5 -1t-15.5 -4t-18 -8.5t-14 -15.5q-3 -7 -4 -14.5t-1 -10.5t1.5 -12.5t6.5 -18.5q7 -11 23 -20t45 -9q4 0 17.5 0.5t27.5 5.5q23 8 40 24.5t25 38.5q5 15 6 30.5t1 19.5z" />
    <glyph glyph-name="ccedilla" unicode="&#xe7;" horiz-adv-x="542" 
d="M377 332q-3 16 -6 23.5t-7 14.5q-8 14 -25.5 28t-52.5 14q-43 0 -65.5 -21.5t-32.5 -48t-11 -50.5t-1 -30q0 -54 13 -84.5t33 -46.5q8 -6 23 -13.5t40 -7.5q5 0 16 1.5t24 7.5q15 6 33 24t23 56l143 -7q-2 -9 -5.5 -26.5t-12.5 -39t-23.5 -44t-37.5 -42.5
q-24 -20 -49 -31.5t-47.5 -16.5t-41 -6t-29.5 -1q-10 0 -27.5 1t-39 5.5t-45.5 15t-48 28.5q-35 27 -54 60.5t-28 65.5t-11 58.5t-2 38.5q0 61 18 111.5t52.5 87t83.5 56.5t112 20q10 0 32.5 -1.5t48.5 -9.5q45 -14 81.5 -47.5t54.5 -78.5q6 -15 8.5 -28.5t4.5 -29.5z
M337 -151l-66 -84h-78l63 84h-40v103h121v-103z" />
    <glyph glyph-name="egrave" unicode="&#xe8;" 
d="M535 150q-2 -5 -4.5 -14.5t-8.5 -20.5q-4 -7 -11.5 -18.5t-18.5 -25t-26.5 -27t-34.5 -24.5q-22 -12 -44.5 -19t-43 -10.5t-36 -4.5t-22.5 -1q-13 0 -35.5 2t-49.5 10t-56 24.5t-55 45.5q-10 11 -21.5 28.5t-21 41.5t-16 54.5t-6.5 67.5q0 12 1.5 34t8.5 48.5t21 55.5
t39 56q11 12 28 26t40.5 26t55 20t71.5 8q12 0 31.5 -1.5t43.5 -8.5t49.5 -20.5t49.5 -38.5q31 -33 47.5 -71.5t23.5 -74t7 -63.5v-39h-363q1 -5 2 -12.5t5 -18.5q1 -5 4.5 -13.5t10 -19t16.5 -20.5t24 -17q8 -3 20 -6.5t31 -3.5q35 0 54 11.5t28 22.5q5 6 9 12.5t5 8.5z
M386 328q-1 7 -2.5 14.5t-4.5 15.5t-9.5 18.5t-17.5 19.5t-27.5 15t-38.5 6q-8 0 -21 -1.5t-26.5 -7.5t-27 -18.5t-22.5 -33.5q-4 -7 -5.5 -11.5t-4.5 -16.5h207zM248 589l-122 147h171l49 -147h-98z" />
    <glyph glyph-name="eacute" unicode="&#xe9;" 
d="M535 150q-2 -5 -4.5 -14.5t-8.5 -20.5q-4 -7 -11.5 -18.5t-18.5 -25t-26.5 -27t-34.5 -24.5q-22 -12 -44.5 -19t-43 -10.5t-36 -4.5t-22.5 -1q-13 0 -35.5 2t-49.5 10t-56 24.5t-55 45.5q-10 11 -21.5 28.5t-21 41.5t-16 54.5t-6.5 67.5q0 12 1.5 34t8.5 48.5t21 55.5
t39 56q11 12 28 26t40.5 26t55 20t71.5 8q12 0 31.5 -1.5t43.5 -8.5t49.5 -20.5t49.5 -38.5q31 -33 47.5 -71.5t23.5 -74t7 -63.5v-39h-363q1 -5 2 -12.5t5 -18.5q1 -5 4.5 -13.5t10 -19t16.5 -20.5t24 -17q8 -3 20 -6.5t31 -3.5q35 0 54 11.5t28 22.5q5 6 9 12.5t5 8.5z
M386 328q-1 7 -2.5 14.5t-4.5 15.5t-9.5 18.5t-17.5 19.5t-27.5 15t-38.5 6q-8 0 -21 -1.5t-26.5 -7.5t-27 -18.5t-22.5 -33.5q-4 -7 -5.5 -11.5t-4.5 -16.5h207zM218 589l45 147h165l-111 -147h-99z" />
    <glyph glyph-name="ecircumflex" unicode="&#xea;" 
d="M535 150q-2 -5 -4.5 -14.5t-8.5 -20.5q-4 -7 -11.5 -18.5t-18.5 -25t-26.5 -27t-34.5 -24.5q-22 -12 -44.5 -19t-43 -10.5t-36 -4.5t-22.5 -1q-13 0 -35.5 2t-49.5 10t-56 24.5t-55 45.5q-10 11 -21.5 28.5t-21 41.5t-16 54.5t-6.5 67.5q0 12 1.5 34t8.5 48.5t21 55.5
t39 56q11 12 28 26t40.5 26t55 20t71.5 8q12 0 31.5 -1.5t43.5 -8.5t49.5 -20.5t49.5 -38.5q31 -33 47.5 -71.5t23.5 -74t7 -63.5v-39h-363q1 -5 2 -12.5t5 -18.5q1 -5 4.5 -13.5t10 -19t16.5 -20.5t24 -17q8 -3 20 -6.5t31 -3.5q35 0 54 11.5t28 22.5q5 6 9 12.5t5 8.5z
M386 328q-1 7 -2.5 14.5t-4.5 15.5t-9.5 18.5t-17.5 19.5t-27.5 15t-38.5 6q-8 0 -21 -1.5t-26.5 -7.5t-27 -18.5t-22.5 -33.5q-4 -7 -5.5 -11.5t-4.5 -16.5h207zM330 589l-49 81l-50 -81h-113l95 147h141l88 -147h-112z" />
    <glyph glyph-name="edieresis" unicode="&#xeb;" 
d="M535 150q-2 -5 -4.5 -14.5t-8.5 -20.5q-4 -7 -11.5 -18.5t-18.5 -25t-26.5 -27t-34.5 -24.5q-22 -12 -44.5 -19t-43 -10.5t-36 -4.5t-22.5 -1q-13 0 -35.5 2t-49.5 10t-56 24.5t-55 45.5q-10 11 -21.5 28.5t-21 41.5t-16 54.5t-6.5 67.5q0 12 1.5 34t8.5 48.5t21 55.5
t39 56q11 12 28 26t40.5 26t55 20t71.5 8q12 0 31.5 -1.5t43.5 -8.5t49.5 -20.5t49.5 -38.5q31 -33 47.5 -71.5t23.5 -74t7 -63.5v-39h-363q1 -5 2 -12.5t5 -18.5q1 -5 4.5 -13.5t10 -19t16.5 -20.5t24 -17q8 -3 20 -6.5t31 -3.5q35 0 54 11.5t28 22.5q5 6 9 12.5t5 8.5z
M386 328q-1 7 -2.5 14.5t-4.5 15.5t-9.5 18.5t-17.5 19.5t-27.5 15t-38.5 6q-8 0 -21 -1.5t-26.5 -7.5t-27 -18.5t-22.5 -33.5q-4 -7 -5.5 -11.5t-4.5 -16.5h207zM461 589h-136v129h136v-129zM242 589h-138v129h138v-129z" />
    <glyph glyph-name="igrave" unicode="&#xec;" horiz-adv-x="250" 
d="M198 0h-146v518h146v-518zM92 589l-122 147h171l48 -147h-97z" />
    <glyph glyph-name="iacute" unicode="&#xed;" horiz-adv-x="250" 
d="M198 0h-146v518h146v-518zM62 589l45 147h165l-111 -147h-99z" />
    <glyph glyph-name="icircumflex" unicode="&#xee;" horiz-adv-x="250" 
d="M198 0h-146v518h146v-518zM174 589l-49 81l-51 -81h-112l94 147h142l88 -147h-112z" />
    <glyph glyph-name="idieresis" unicode="&#xef;" horiz-adv-x="250" 
d="M198 0h-146v518h146v-518zM305 589h-137v129h137v-129zM86 589h-138v129h138v-129z" />
    <glyph glyph-name="ntilde" unicode="&#xf1;" 
d="M196 518v-59q7 8 17 19t31 25q23 14 45.5 20.5t49.5 6.5q10 0 28 -2t39 -9.5t42 -22.5t38 -41q13 -20 19.5 -41.5t9 -43.5t2.5 -44.5v-44.5v-281h-151v271q0 15 0.5 32t-2 33t-9.5 30t-22 24q-6 4 -17 9t-28 5q-33 -1 -50.5 -17.5t-23.5 -26.5q-5 -10 -8 -20.5t-4 -23.5
t-1.5 -29t-0.5 -37v-250h-148v518h144zM134 589q0 18 -0.5 31t-0.5 23t1.5 18.5t4.5 18.5q1 5 5.5 14.5t13 19.5t21.5 17t32 7q11 0 24.5 -3.5t25 -8t19.5 -8.5t9 -4q10 -5 25 -11.5t28 -6.5q4 0 8 1t9 8q4 5 6 11.5t3 19.5h66q1 -8 2 -34t-4 -53q-1 -5 -3.5 -15.5t-9 -21
t-18.5 -18t-31 -7.5q-6 0 -12.5 1t-17.5 4q-15 4 -28 9.5l-39 16.5q-17 7 -26 10.5t-18 3.5q-11 0 -15 -6q-6 -6 -7.5 -13.5t-2.5 -23.5h-70z" />
    <glyph glyph-name="ograve" unicode="&#xf2;" horiz-adv-x="583" 
d="M559 265q0 -15 -2.5 -47.5t-18.5 -70.5q-16 -40 -42.5 -70.5t-60 -50.5t-72.5 -30.5t-81 -10.5q-11 0 -31.5 1.5t-45.5 8.5t-52.5 21t-52.5 38q-40 40 -58.5 95t-18.5 109q0 17 5 56.5t28 84.5q25 48 60 74.5t71 40t66.5 16.5t46.5 3q14 0 44.5 -3t66.5 -19
q37 -16 64.5 -42t46 -58.5t28 -69.5t9.5 -76zM408 267v17.5t-2.5 26.5t-8.5 31.5t-18 31.5q-23 29 -47 35t-38 6q-22 0 -43.5 -7.5t-38.5 -25t-27.5 -47t-10.5 -74.5q0 -57 15 -88t38 -48q28 -20 64 -20q9 0 26.5 3t37.5 17q16 12 26.5 28.5t16.5 35.5t8 39t2 39zM258 589
l-122 147h171l49 -147h-98z" />
    <glyph glyph-name="oacute" unicode="&#xf3;" horiz-adv-x="583" 
d="M559 265q0 -15 -2.5 -47.5t-18.5 -70.5q-16 -40 -42.5 -70.5t-60 -50.5t-72.5 -30.5t-81 -10.5q-11 0 -31.5 1.5t-45.5 8.5t-52.5 21t-52.5 38q-40 40 -58.5 95t-18.5 109q0 17 5 56.5t28 84.5q25 48 60 74.5t71 40t66.5 16.5t46.5 3q14 0 44.5 -3t66.5 -19
q37 -16 64.5 -42t46 -58.5t28 -69.5t9.5 -76zM408 267v17.5t-2.5 26.5t-8.5 31.5t-18 31.5q-23 29 -47 35t-38 6q-22 0 -43.5 -7.5t-38.5 -25t-27.5 -47t-10.5 -74.5q0 -57 15 -88t38 -48q28 -20 64 -20q9 0 26.5 3t37.5 17q16 12 26.5 28.5t16.5 35.5t8 39t2 39zM228 589
l46 147h165l-111 -147h-100z" />
    <glyph glyph-name="ocircumflex" unicode="&#xf4;" horiz-adv-x="583" 
d="M559 265q0 -15 -2.5 -47.5t-18.5 -70.5q-16 -40 -42.5 -70.5t-60 -50.5t-72.5 -30.5t-81 -10.5q-11 0 -31.5 1.5t-45.5 8.5t-52.5 21t-52.5 38q-40 40 -58.5 95t-18.5 109q0 17 5 56.5t28 84.5q25 48 60 74.5t71 40t66.5 16.5t46.5 3q14 0 44.5 -3t66.5 -19
q37 -16 64.5 -42t46 -58.5t28 -69.5t9.5 -76zM408 267v17.5t-2.5 26.5t-8.5 31.5t-18 31.5q-23 29 -47 35t-38 6q-22 0 -43.5 -7.5t-38.5 -25t-27.5 -47t-10.5 -74.5q0 -57 15 -88t38 -48q28 -20 64 -20q9 0 26.5 3t37.5 17q16 12 26.5 28.5t16.5 35.5t8 39t2 39zM340 589
l-49 81l-50 -81h-112l94 147h142l88 -147h-113z" />
    <glyph glyph-name="otilde" unicode="&#xf5;" horiz-adv-x="583" 
d="M559 265q0 -15 -2.5 -47.5t-18.5 -70.5q-16 -40 -42.5 -70.5t-60 -50.5t-72.5 -30.5t-81 -10.5q-11 0 -31.5 1.5t-45.5 8.5t-52.5 21t-52.5 38q-40 40 -58.5 95t-18.5 109q0 17 5 56.5t28 84.5q25 48 60 74.5t71 40t66.5 16.5t46.5 3q14 0 44.5 -3t66.5 -19
q37 -16 64.5 -42t46 -58.5t28 -69.5t9.5 -76zM408 267v17.5t-2.5 26.5t-8.5 31.5t-18 31.5q-23 29 -47 35t-38 6q-22 0 -43.5 -7.5t-38.5 -25t-27.5 -47t-10.5 -74.5q0 -57 15 -88t38 -48q28 -20 64 -20q9 0 26.5 3t37.5 17q16 12 26.5 28.5t16.5 35.5t8 39t2 39zM145 589
q0 18 -0.5 31t-0.5 23t1 18.5t4 18.5q1 5 5.5 14.5t13 19.5t21.5 17t32 7q12 0 25.5 -3.5t25 -8t19.5 -8.5l8 -4q11 -5 26 -11.5t27 -6.5q5 0 8.5 1t8.5 8q5 5 7 11.5t3 19.5h66q1 -8 2 -34t-4 -53q-1 -5 -3.5 -15.5t-9.5 -21t-19 -18t-31 -7.5q-5 0 -12 1t-18 4
q-14 4 -27.5 9.5t-39.5 16.5q-16 7 -25.5 10.5t-18.5 3.5q-10 0 -14 -6q-7 -6 -8.5 -13.5t-1.5 -23.5h-70z" />
    <glyph glyph-name="odieresis" unicode="&#xf6;" horiz-adv-x="583" 
d="M559 265q0 -15 -2.5 -47.5t-18.5 -70.5q-16 -40 -42.5 -70.5t-60 -50.5t-72.5 -30.5t-81 -10.5q-11 0 -31.5 1.5t-45.5 8.5t-52.5 21t-52.5 38q-40 40 -58.5 95t-18.5 109q0 17 5 56.5t28 84.5q25 48 60 74.5t71 40t66.5 16.5t46.5 3q14 0 44.5 -3t66.5 -19
q37 -16 64.5 -42t46 -58.5t28 -69.5t9.5 -76zM408 267v17.5t-2.5 26.5t-8.5 31.5t-18 31.5q-23 29 -47 35t-38 6q-22 0 -43.5 -7.5t-38.5 -25t-27.5 -47t-10.5 -74.5q0 -57 15 -88t38 -48q28 -20 64 -20q9 0 26.5 3t37.5 17q16 12 26.5 28.5t16.5 35.5t8 39t2 39zM471 589
h-136v129h136v-129zM253 589h-138v129h138v-129z" />
    <glyph glyph-name="oslash" unicode="&#xf8;" horiz-adv-x="583" 
d="M68 -32l-43 38l60 69q-11 11 -20 23t-20 39q-17 41 -20 69.5t-3 46.5q0 16 2.5 50.5t19.5 75.5q16 39 41.5 68.5t58 48.5t71 28.5t79.5 9.5q6 0 19.5 -0.5t31 -3.5t37.5 -8.5t39 -14.5q8 -5 15 -9t15 -9l60 67l43 -38l-58 -67q12 -17 28.5 -44t27.5 -76q8 -37 8 -73
q0 -60 -20.5 -110.5t-56.5 -86.5t-86.5 -56t-110.5 -20q-31 0 -55.5 5t-44 12.5t-34 16t-25.5 16.5zM366 394q-9 6 -27.5 15t-47.5 9q-4 0 -16.5 -1t-24.5 -5q-25 -8 -41.5 -24t-26 -37t-13.5 -45t-4 -47q0 -29 4 -48t8 -31zM213 131q0 -1 4.5 -5t8.5 -6q19 -12 39 -14
t25 -2t21 1.5t32 8.5q20 9 34 25.5t22.5 36.5t12.5 42t4 42q0 18 -2 35.5t-12 50.5z" />
    <glyph glyph-name="ugrave" unicode="&#xf9;" 
d="M509 0h-140v57q-8 -12 -19 -23q-14 -14 -46.5 -30.5t-83.5 -16.5q-8 0 -26 1.5t-39.5 9t-43 22.5t-36.5 42q-10 18 -15 36.5t-7.5 41.5t-3 52t-0.5 68v258h147v-239v-55.5t3 -44t10 -33.5t22 -24q14 -9 27.5 -11t19.5 -2q7 0 18.5 2t23 8t22 18t16.5 32q5 18 6 50t2 77
v222h143v-518zM248 589l-122 147h171l49 -147h-98z" />
    <glyph glyph-name="uacute" unicode="&#xfa;" 
d="M509 0h-140v57q-8 -12 -19 -23q-14 -14 -46.5 -30.5t-83.5 -16.5q-8 0 -26 1.5t-39.5 9t-43 22.5t-36.5 42q-10 18 -15 36.5t-7.5 41.5t-3 52t-0.5 68v258h147v-239v-55.5t3 -44t10 -33.5t22 -24q14 -9 27.5 -11t19.5 -2q7 0 18.5 2t23 8t22 18t16.5 32q5 18 6 50t2 77
v222h143v-518zM218 589l45 147h165l-111 -147h-99z" />
    <glyph glyph-name="ucircumflex" unicode="&#xfb;" 
d="M509 0h-140v57q-8 -12 -19 -23q-14 -14 -46.5 -30.5t-83.5 -16.5q-8 0 -26 1.5t-39.5 9t-43 22.5t-36.5 42q-10 18 -15 36.5t-7.5 41.5t-3 52t-0.5 68v258h147v-239v-55.5t3 -44t10 -33.5t22 -24q14 -9 27.5 -11t19.5 -2q7 0 18.5 2t23 8t22 18t16.5 32q5 18 6 50t2 77
v222h143v-518zM330 589l-49 81l-50 -81h-113l95 147h141l88 -147h-112z" />
    <glyph glyph-name="udieresis" unicode="&#xfc;" 
d="M509 0h-140v57q-8 -12 -19 -23q-14 -14 -46.5 -30.5t-83.5 -16.5q-8 0 -26 1.5t-39.5 9t-43 22.5t-36.5 42q-10 18 -15 36.5t-7.5 41.5t-3 52t-0.5 68v258h147v-239v-55.5t3 -44t10 -33.5t22 -24q14 -9 27.5 -11t19.5 -2q7 0 18.5 2t23 8t22 18t16.5 32q5 18 6 50t2 77
v222h143v-518zM461 589h-136v129h136v-129zM242 589h-138v129h138v-129z" />
    <glyph glyph-name="ydieresis" unicode="&#xff;" horiz-adv-x="500" 
d="M498 518l-171 -514q-5 -14 -10.5 -31t-13 -34t-16.5 -32.5t-20 -26.5q-3 -4 -10 -9.5t-18 -10.5q-20 -10 -46 -13t-71 -5q-8 0 -16 -0.5t-16 -0.5q-10 0 -19.5 0.5t-20.5 1.5l1 116q14 0 29 -0.5t29 0.5q26 2 37 9t18 20q2 5 5.5 13.5t3.5 22.5q0 16 -6 30.5t-15 43.5
l-150 420h160l94 -349l86 349h156zM430 589h-137v129h137v-129zM211 589h-138v129h138v-129z" />
    <glyph glyph-name="OE" unicode="&#x152;" horiz-adv-x="1062" 
d="M674 434h327v-126h-327v-175h361v-133h-520l-1 35q-5 -3 -9.5 -6.5t-9.5 -5.5q-21 -12 -58 -25t-95 -13q-45 0 -86.5 10.5t-78.5 34.5t-66 61q-28 36 -43 78t-22 79.5t-8.5 66.5t-1.5 40q0 18 2.5 56.5t16.5 85.5q14 48 35.5 83t45.5 59t48 38.5t42 22.5q17 7 50.5 15
t82.5 8q13 0 47.5 -3t72.5 -21q14 -6 22 -11t14 -10v28h511v-129h-352v-143zM515 476q0 17 -2.5 27.5t-12.5 24.5q-14 20 -31.5 31.5t-34.5 17t-31.5 7t-22.5 1.5q-11 0 -28 -2.5t-35.5 -10t-38 -22.5t-36.5 -40q-25 -37 -31.5 -77t-6.5 -84q0 -8 0.5 -23.5t3.5 -36
t10.5 -43t21.5 -43.5q23 -35 57.5 -55t76.5 -20q9 0 23 1.5t34 8.5q23 8 38 19t24.5 23.5t14 24.5t6.5 22t1.5 15t-0.5 10v224z" />
    <glyph glyph-name="oe" unicode="&#x153;" horiz-adv-x="938" 
d="M905 151q-8 -21 -24 -49.5t-45 -54.5t-72 -44t-104 -18q-9 0 -24.5 1t-35 4.5t-42 12t-44.5 23.5q-8 6 -16 12.5t-22 20.5q-6 -5 -12 -10.5t-13 -10.5q-10 -7 -25.5 -15.5t-36.5 -16.5t-47.5 -13.5t-57.5 -5.5q-10 0 -25.5 1t-34.5 5t-41 12.5t-44 23.5q-17 11 -37 29.5
t-37 46.5t-29 65.5t-12 87.5q0 20 5.5 60.5t31.5 87.5q24 43 57.5 68t67 37.5t62.5 16t44 3.5q8 0 24.5 -1t37.5 -5.5t45 -13.5t47 -24q9 -6 16 -11t15 -13q10 9 25.5 21t37 23t49.5 18.5t64 7.5q44 0 78 -10.5t59 -26t41.5 -33.5t26.5 -32q21 -31 32 -64.5t16 -64
t5.5 -53.5t0.5 -33h-359l2.5 -12.5t4.5 -17.5q3 -9 9 -23t18 -26.5t31 -21.5t47 -9q9 0 31 4.5t42 24.5q7 7 11.5 14t6.5 10zM758 328q-1 3 -4 14.5t-9 22.5q-4 7 -10.5 16t-17 17t-26 13.5t-36.5 5.5q-5 0 -14.5 -0.5t-22.5 -5.5q-20 -8 -35.5 -25t-22.5 -36q-3 -8 -6 -22
h204zM405 255v15.5t-1.5 26.5t-6 32t-13.5 32q-7 12 -14 19.5t-11 10.5q-20 15 -39.5 18.5t-27.5 3.5q-19 0 -34 -5t-26 -12t-18.5 -14.5t-11.5 -12.5q-11 -14 -16.5 -31t-8.5 -33t-3.5 -28t-0.5 -15q0 -9 1 -22t6 -33q2 -9 7.5 -25.5t17.5 -33t32.5 -28.5t52.5 -12
q21 0 34 4.5t21 9.5q24 14 41 44.5t19 88.5z" />
    <glyph glyph-name="Ydieresis" unicode="&#x178;" horiz-adv-x="625" 
d="M629 706l-238 -443v-263h-158v263l-238 443h176l139 -288l144 288h175zM363 771v124h131v-124h-131zM130 895h129v-124h-129v124z" />
    <glyph glyph-name="circumflex" unicode="&#x2c6;" horiz-adv-x="292" 
d="M101 589l-49 81l-51 -81h-112l95 147h141l88 -147h-112z" />
    <glyph glyph-name="tilde" unicode="&#x2dc;" horiz-adv-x="292" 
d="M-95 589q0 18 -0.5 31t-0.5 23t1.5 18.5t4.5 18.5q1 5 5.5 14.5t13 19.5t21.5 17t31 7q12 0 25.5 -3.5t25 -8t19.5 -8.5t9 -4q10 -5 25 -11.5t28 -6.5q4 0 8 1t9 8q4 5 6 11.5t3 19.5h66q1 -8 2 -34t-4 -53q-1 -5 -3.5 -15.5t-9 -21t-18.5 -18t-32 -7.5q-5 0 -12 1t-18 4
q-14 4 -27 9.5l-39 16.5q-17 7 -26 10.5t-18 3.5q-11 0 -15 -6q-6 -6 -7.5 -13.5t-2.5 -23.5h-70z" />
    <glyph glyph-name="endash" unicode="&#x2013;" 
d="M521 221h-482v118h482v-118z" />
    <glyph glyph-name="emdash" unicode="&#x2014;" horiz-adv-x="667" 
d="M0 242v103h667v-103h-667z" />
    <glyph glyph-name="quoteleft" unicode="&#x2018;" horiz-adv-x="250" 
d="M50 535q1 14 4.5 40.5t24.5 56.5q15 23 33.5 38.5t36.5 24.5t34 13.5t25 6.5l-1 -55q-37 -14 -58 -42l-10 -16t-8 -16t-4.5 -16t-3.5 -24h74v-150h-147v139z" />
    <glyph glyph-name="quoteright" unicode="&#x2019;" horiz-adv-x="250" 
d="M198 568q0 -18 -1.5 -28.5t-3.5 -18.5q-11 -39 -39 -69.5t-64 -47.5q-11 -5 -20 -8t-29 -8v55q35 13 60 44q2 3 6.5 10t8.5 16q6 14 7.5 26.5t1.5 17.5h-74v149h147v-138z" />
    <glyph glyph-name="quotesinglbase" unicode="&#x201a;" horiz-adv-x="250" 
d="M199 11q-1 -18 -2 -26.5t-3 -18.5q-11 -40 -39 -71t-65 -48q-9 -5 -19.5 -8.5t-29.5 -7.5l1 55q18 8 31.5 17t25.5 25q10 12 17 26.5t10 45.5h-75v149h148v-138z" />
    <glyph glyph-name="quotedblleft" unicode="&#x201c;" horiz-adv-x="458" 
d="M56 535q0 14 4 40.5t24 56.5q16 23 34.5 38.5t36.5 24.5t33.5 13.5t24.5 6.5v-55q-37 -14 -58 -42l-10 -16t-8 -16t-4.5 -16t-3.5 -24h74v-150h-147v139zM257 535q0 18 1 26.5t3 18.5q11 40 39.5 71t65.5 48q8 5 18.5 8.5t29.5 7.5v-55q-37 -14 -58 -42q-12 -15 -18 -32
q-3 -8 -4.5 -16t-3.5 -24h74v-150h-147v139z" />
    <glyph glyph-name="quotedblright" unicode="&#x201d;" horiz-adv-x="458" 
d="M402 568q0 -4 -0.5 -16.5t-3.5 -25.5q-6 -28 -20 -49t-29.5 -36t-30 -23.5t-22.5 -12.5q-12 -6 -25 -10t-26 -7v55q36 13 58 43q9 11 13 18.5t6 13.5t4 15t3 24h-74v149h147v-138zM202 568q-1 -17 -2 -25.5t-3 -16.5q-9 -39 -35 -69.5t-61 -48.5q-16 -8 -28 -12t-29 -8
v55q35 13 59 43q8 11 12 18.5t6 13.5t4 15t4 24h-75v149h148v-138z" />
    <glyph glyph-name="quotedblbase" unicode="&#x201e;" horiz-adv-x="458" 
d="M403 11q0 -14 -4 -40.5t-24 -56.5q-16 -23 -34.5 -38.5t-36.5 -24.5t-33.5 -13.5t-24.5 -6.5v55q18 8 31.5 17t26.5 25q9 12 16.5 26.5t9.5 45.5h-74v149h147v-138zM203 11q-1 -18 -2 -26.5t-3 -18.5q-11 -40 -39 -71t-65 -48q-9 -5 -19.5 -8.5t-29.5 -7.5v55q19 8 32 17
t26 25q9 12 16.5 26.5t10.5 45.5h-75v149h148v-138z" />
    <glyph glyph-name="dagger" unicode="&#x2020;" horiz-adv-x="583" 
d="M365 379v-482h-146v482h-181v125h181v202h146v-202h180v-125h-180z" />
    <glyph glyph-name="bullet" unicode="&#x2022;" horiz-adv-x="333" 
d="M309 352q0 -30 -10.5 -56t-29 -45t-44 -30t-55.5 -11t-57 11t-46.5 30t-31 45t-11.5 57q0 8 2.5 23.5t10.5 34.5q4 9 14 23.5t26 28t39 23t53 9.5q8 0 24 -2t36 -11q10 -5 23.5 -14t26 -25t21.5 -38.5t9 -52.5z" />
    <glyph glyph-name="ellipsis" unicode="&#x2026;" horiz-adv-x="1000" 
d="M901 63q0 -29 -19 -49t-48 -20t-48.5 19.5t-19.5 48.5t19.5 48.5t48.5 19.5q4 0 12 -0.5t17 -5.5q18 -8 28 -24.5t10 -36.5zM568 63q0 -29 -19 -49t-48 -20q-28 0 -48.5 19.5t-20.5 48.5t20 48.5t49 19.5t47.5 -19t19.5 -48zM235 63q0 -4 -1 -10.5t-4 -14.5
q-8 -20 -24.5 -32t-38.5 -12q-29 0 -48.5 19.5t-19.5 48.5t20 48.5t49 19.5q28 0 47 -19t20 -48z" />
    <glyph glyph-name="trademark" unicode="&#x2122;" horiz-adv-x="687" 
d="M586 374l2 192l0.5 7.5t1 18t1.5 21.5t2 20q-4 -14 -7.5 -27.5t-7.5 -27.5l-62 -204h-63l-64 205q-4 13 -7.5 26t-7.5 27q2 -17 3 -33.5t2 -33.5l4 -191h-69v332h92l80 -251l76 251h93v-332h-69zM113 374v274h-105v58h278v-58h-102v-274h-71z" />
    <glyph glyph-name="Tilde" horiz-adv-x="292" 
d="M-97 771q1 23 3.5 33.5t5.5 21.5q7 27 15.5 38t21.5 18q14 8 25.5 9t17.5 1q18 0 34.5 -4t48.5 -13q7 -2 18 -4.5t19 -2.5q17 0 21 11t5 16l76 -1q0 -11 -0.5 -19.5t-5.5 -28.5q-6 -25 -16.5 -40t-23 -23.5t-25.5 -11t-25 -2.5q-16 0 -39 6t-39 10q-13 4 -23.5 6t-15.5 2
q-14 0 -17.5 -8.5t-4.5 -13.5h-76z" />
    <glyph glyph-name="Dieresis" horiz-adv-x="292" 
d="M103 771v124h130v-124h-130zM-131 895h130v-124h-130v124z" />
    <glyph glyph-name="Caron" horiz-adv-x="292" 
d="M103 895h115l-88 -124h-157l-85 124h113l52 -69z" />
    <glyph glyph-name="Circumflex" horiz-adv-x="292" 
d="M1 771h-115l89 124h155l86 -124h-113l-51 67z" />
    <glyph glyph-name="onefitted" horiz-adv-x="417" 
d="M311 0h-142v467h-161v105q3 0 17 -0.5t32.5 1.5t39.5 6.5t38 15.5q16 11 26 24.5t15.5 26.5t7.5 24.5t3 17.5h124v-688z" />
    <glyph glyph-name="Grave" horiz-adv-x="292" 
d="M-75 895h162l22 -124h-96z" />
    <glyph glyph-name="Acute" horiz-adv-x="292" 
d="M17 895h166l-94 -124h-94z" />
    </font>
</defs>
</svg>
